<svg width="58" height="19" viewBox="0 0 58 19" fill="none" xmlns="http://www.w3.org/2000/svg">
<path d="M0 3.41261C0 3.30758 0.0241667 3.23431 0.0676667 3.19278C0.111167 3.15126 0.18125 3.13172 0.2755 3.13172H1.07058C1.23975 3.13172 1.34125 3.21477 1.3775 3.37841L1.45483 3.66907C1.67475 3.45413 1.943 3.28071 2.25233 3.15614C2.5558 3.02925 2.88092 2.9637 3.20933 2.96319C3.91983 2.96319 4.48533 3.22942 4.901 3.75944C5.31425 4.28947 5.52208 5.00512 5.52208 5.90885C5.52208 6.52925 5.42058 7.06905 5.21517 7.53312C5.00733 7.9972 4.72942 8.35137 4.37658 8.6005C4.02161 8.85215 3.59695 8.98381 3.16342 8.97665C2.86133 8.97665 2.57617 8.9278 2.3055 8.8301C2.04992 8.74362 1.8135 8.60755 1.6095 8.42953V10.8794C1.6095 10.9844 1.59017 11.0577 1.54908 11.0992C1.508 11.1383 1.43792 11.1603 1.33158 11.1603H0.277917C0.18125 11.1603 0.113583 11.1383 0.0700833 11.0992C0.0241667 11.0577 0.00241667 10.9844 0.00241667 10.8794L0 3.41261ZM2.68975 4.19421C2.30915 4.19425 1.93573 4.29895 1.6095 4.49708V7.44275C1.934 7.64493 2.30857 7.74994 2.68975 7.74562C3.10058 7.74562 3.40508 7.60396 3.59842 7.32062C3.79417 7.03485 3.89083 6.58787 3.89083 5.97724C3.89083 5.35685 3.79417 4.90498 3.60567 4.62165C3.41233 4.33832 3.10783 4.19666 2.68975 4.19666V4.19421ZM8.12242 3.98171C8.41483 3.65442 8.69275 3.41994 8.95375 3.28315C9.21061 3.14589 9.49694 3.07459 9.7875 3.07554H9.93975C10.0437 3.07554 10.1162 3.09753 10.1621 3.13661C10.2056 3.17813 10.2273 3.2514 10.2273 3.35643V4.2968C10.2273 4.3945 10.208 4.46289 10.1669 4.50929C10.1258 4.55326 10.0558 4.57524 9.95183 4.57524C9.88567 4.57496 9.81955 4.5717 9.75367 4.56547C9.44383 4.5418 9.13224 4.56235 8.82808 4.62654C8.58642 4.67539 8.37858 4.73645 8.20942 4.81217V8.57363C8.20942 8.67133 8.19008 8.74217 8.149 8.78613C8.11033 8.8301 8.03783 8.85452 7.93392 8.85452H6.87783C6.78117 8.85452 6.71108 8.8301 6.66758 8.78613C6.62408 8.74217 6.59992 8.67133 6.59992 8.57363V3.41261C6.59992 3.30758 6.62408 3.23431 6.66758 3.19278C6.71108 3.15126 6.78117 3.13172 6.87783 3.13172H7.6705C7.83967 3.13172 7.94117 3.21476 7.97983 3.37597L8.12242 3.98171ZM11.8103 2.24753C11.5648 2.25944 11.3243 2.17548 11.1384 2.01305C11.053 1.93117 10.9861 1.83159 10.9423 1.72113C10.8985 1.61068 10.8788 1.49196 10.8847 1.37311C10.8847 1.10444 10.9693 0.891937 11.1384 0.738058C11.3238 0.574525 11.5645 0.489647 11.8103 0.501135C12.0906 0.501135 12.3129 0.579294 12.4821 0.735615C12.6512 0.891936 12.7358 1.10444 12.7358 1.37311C12.7413 1.49192 12.7215 1.61054 12.6778 1.72095C12.634 1.83136 12.5673 1.93097 12.4821 2.01305C12.2962 2.17548 12.0557 2.25944 11.8103 2.24753ZM11.0055 3.41261C11.0055 3.30758 11.0297 3.23431 11.0708 3.19278C11.1167 3.15126 11.1868 3.13172 11.281 3.13172H12.3395C12.4434 3.13172 12.5135 3.15126 12.5546 3.19278C12.5957 3.23431 12.615 3.30758 12.615 3.41261V8.57363C12.615 8.67133 12.5957 8.74217 12.5546 8.78613C12.5135 8.8301 12.4434 8.85452 12.3371 8.85452H11.281C11.1843 8.85452 11.1167 8.8301 11.0708 8.78613C11.0273 8.74217 11.0055 8.67133 11.0055 8.57363V3.41261ZM15.4449 3.68128C15.834 3.41994 16.1844 3.2343 16.4962 3.12683C16.8103 3.01692 17.1318 2.96319 17.4628 2.96319C18.1226 2.96319 18.589 3.20255 18.8621 3.68128C19.2367 3.42726 19.5871 3.24163 19.9206 3.13172C20.2517 3.01936 20.5924 2.96319 20.9452 2.96319C21.46 2.96319 21.8563 3.10974 22.1415 3.4004C22.4242 3.6935 22.5644 4.09895 22.5644 4.62165V8.57363C22.5644 8.67133 22.5451 8.74217 22.504 8.78613C22.4629 8.83254 22.3928 8.85208 22.2889 8.85208H21.2304C21.1338 8.85208 21.0661 8.83254 21.0226 8.78613C20.9791 8.74217 20.9549 8.67133 20.9549 8.57363V4.9807C20.9549 4.47266 20.7326 4.21864 20.2831 4.21864C19.8867 4.21864 19.4856 4.31634 19.082 4.50929V8.57363C19.082 8.67133 19.0627 8.74217 19.0216 8.78613C18.9805 8.83254 18.9104 8.85208 18.8041 8.85208H17.748C17.6513 8.85208 17.5837 8.83254 17.5402 8.78613C17.4943 8.74217 17.4725 8.67133 17.4725 8.57363V4.9807C17.4725 4.47266 17.2478 4.21864 16.8007 4.21864C16.3898 4.21864 15.9862 4.31634 15.5875 4.51907V8.57363C15.5875 8.67133 15.5682 8.74217 15.5271 8.78613C15.486 8.83254 15.4159 8.85208 15.312 8.85208H14.2535C14.1593 8.85208 14.0892 8.83254 14.0457 8.78613C14.0022 8.74217 13.9804 8.67133 13.9804 8.57363V3.41261C13.9804 3.30758 14.0022 3.23431 14.0457 3.19278C14.0892 3.15126 14.1593 3.13172 14.2535 3.13172H15.0486C15.2178 3.13172 15.3193 3.21477 15.3579 3.37841L15.4449 3.68128ZM26.0468 6.5146C25.6799 6.52026 25.3137 6.47923 24.9569 6.39247C25.0004 6.89074 25.1503 7.24735 25.404 7.46718C25.6578 7.68212 26.0396 7.78959 26.5543 7.78959C26.7598 7.78959 26.9603 7.77738 27.1561 7.75051C27.4512 7.70479 27.7434 7.64117 28.0309 7.55999C28.0493 7.55685 28.0679 7.55522 28.0865 7.55511C28.2122 7.55511 28.275 7.64059 28.275 7.81157V8.32694C28.275 8.44662 28.2581 8.52967 28.2267 8.57852C28.176 8.63964 28.1088 8.68461 28.0333 8.70797C27.4871 8.91838 26.9069 9.02439 26.3223 9.02061C25.4113 9.02061 24.7128 8.76903 24.2247 8.25855C23.7341 7.75295 23.49 7.02508 23.49 6.07739C23.49 5.10527 23.7413 4.3432 24.2392 3.79364C24.7394 3.23919 25.433 2.96319 26.3223 2.96319C27.0063 2.96319 27.5403 3.13172 27.927 3.46634C28.1175 3.63167 28.2686 3.83836 28.3691 4.07097C28.4695 4.30358 28.5166 4.55612 28.507 4.80972C28.507 5.3715 28.2968 5.79406 27.8835 6.07983C27.4678 6.37049 26.8564 6.51216 26.0468 6.51216V6.5146ZM26.2015 4.09651C25.4958 4.09651 25.0898 4.53616 24.9787 5.41547C25.2735 5.47653 25.5998 5.50584 25.9598 5.50584C26.3344 5.50584 26.6051 5.44722 26.7743 5.33242C26.9434 5.21762 27.028 5.03932 27.028 4.79995C27.028 4.32855 26.7525 4.09407 26.2015 4.09407V4.09651ZM33.3258 8.84964C33.2643 8.85187 33.2029 8.84276 33.1446 8.82277C33.0971 8.804 33.0554 8.77282 33.0238 8.7324C32.9849 8.67948 32.9539 8.62104 32.9319 8.55898L31.0542 3.57626C31.0347 3.5253 31.0162 3.474 30.9986 3.42238C30.985 3.38308 30.9777 3.34186 30.9768 3.30025C30.9768 3.18545 31.0493 3.12928 31.1968 3.12928H32.2939C32.4123 3.12928 32.4969 3.1537 32.5525 3.19767C32.6081 3.24163 32.6492 3.31735 32.6782 3.42238L33.8092 7.38413L34.9619 3.42238C34.9799 3.33618 35.0238 3.25769 35.0876 3.19767C35.1432 3.1537 35.2278 3.13172 35.3462 3.13172H36.4095C36.5569 3.13172 36.6294 3.18546 36.6294 3.29781C36.6286 3.33943 36.6213 3.38066 36.6077 3.41993L36.5545 3.5787L34.6768 8.55898C34.6538 8.62033 34.622 8.67794 34.5825 8.72996C34.5529 8.77003 34.5139 8.80195 34.4689 8.82277C34.4082 8.84301 34.3442 8.8513 34.2804 8.84719L33.3258 8.84964ZM38.2075 2.24753C37.9625 2.25889 37.7226 2.17399 37.5381 2.01061C37.4533 1.92927 37.3868 1.83049 37.343 1.72093C37.2992 1.61137 37.2792 1.49359 37.2843 1.37555C37.2843 1.10688 37.3689 0.891936 37.5381 0.735615C37.7229 0.573115 37.9628 0.489104 38.2075 0.501135C38.4854 0.501135 38.7078 0.579294 38.8769 0.735615C39.0461 0.891936 39.1283 1.10444 39.1283 1.37311C39.1283 1.64179 39.0461 1.85429 38.8769 2.01061C38.6924 2.17399 38.4525 2.25889 38.2075 2.24753ZM37.6807 8.84964C37.584 8.84964 37.5163 8.82521 37.4728 8.78125C37.4269 8.73728 37.4052 8.66645 37.4052 8.56875V3.41017C37.4052 3.30514 37.4293 3.2343 37.4728 3.19034C37.5163 3.15126 37.5864 3.13172 37.6807 3.13172H38.7343C38.8358 3.13172 38.9083 3.15126 38.9494 3.19278C38.9881 3.23431 39.0074 3.30514 39.0074 3.41261V8.56875C39.0074 8.66645 38.9881 8.73973 38.9494 8.78125C38.9083 8.82766 38.8358 8.84964 38.7319 8.84964H37.6807ZM42.3883 8.97176C41.9465 8.98215 41.5126 8.85138 41.1486 8.59806C40.7873 8.33566 40.5073 7.97477 40.3414 7.55755C40.1463 7.06897 40.0509 6.54555 40.0611 6.01877C40.0611 5.09061 40.2786 4.35297 40.7087 3.79608C40.9076 3.5289 41.167 3.31382 41.4652 3.1689C41.7633 3.02397 42.0915 2.95343 42.4222 2.96319C42.9655 2.95163 43.4962 3.12928 43.9253 3.46634V0.847972C43.9253 0.742944 43.9495 0.669668 43.9906 0.628145C44.0341 0.589065 44.1042 0.567083 44.2008 0.567083H45.2545C45.356 0.567083 45.4261 0.589065 45.4672 0.628145C45.5083 0.669668 45.5276 0.742944 45.5276 0.847972V8.56875C45.5276 8.66645 45.5083 8.73973 45.4672 8.78125C45.4261 8.82766 45.356 8.84964 45.2545 8.84964H44.3748C44.3029 8.85409 44.2315 8.83434 44.1718 8.79346C44.1172 8.74343 44.0806 8.67638 44.0679 8.60294L44.0027 8.34648C43.5646 8.75777 42.9861 8.98184 42.3883 8.97176ZM42.9152 7.74074C43.2749 7.73848 43.6261 7.62979 43.9253 7.4281V4.47266C43.5944 4.28224 43.2186 4.18601 42.8378 4.19421C42.4512 4.19421 42.1612 4.34076 41.9727 4.63386C41.7793 4.92941 41.6875 5.37639 41.6875 5.97236C41.6875 6.57077 41.7866 7.01287 41.9872 7.30597C42.1902 7.59663 42.4995 7.74074 42.9152 7.74074ZM49.1695 6.49506C48.7611 6.49506 48.4083 6.45598 48.1062 6.37293C48.1497 6.86388 48.2947 7.2156 48.5412 7.4281C48.7901 7.6406 49.1623 7.74562 49.6649 7.74562C49.8655 7.74562 50.0612 7.73341 50.2497 7.70654C50.5384 7.66215 50.824 7.60016 51.1053 7.52091C51.1228 7.51782 51.1406 7.51618 51.1584 7.51603C51.2793 7.51603 51.3397 7.60151 51.3397 7.76761V8.27321C51.3397 8.39045 51.3228 8.47349 51.2913 8.5199C51.2426 8.57938 51.178 8.62346 51.1053 8.64691C50.5732 8.85347 50.0077 8.95785 49.4378 8.95467C48.5508 8.95467 47.8669 8.70553 47.3933 8.20726C46.9172 7.70898 46.6779 6.99577 46.6779 6.06762C46.6779 5.11504 46.9196 4.37007 47.4078 3.82784C47.8959 3.2856 48.5726 3.01448 49.4378 3.01448C50.1048 3.01448 50.6268 3.18057 51.0013 3.51031C51.1873 3.67282 51.3346 3.87553 51.4325 4.10343C51.5304 4.33132 51.5763 4.57856 51.5668 4.82682C51.5668 5.37639 51.3638 5.79161 50.9603 6.0725C50.5543 6.35339 49.9573 6.49506 49.1719 6.49506H49.1695ZM49.3218 4.12582C48.633 4.12582 48.2343 4.5557 48.1279 5.42035C48.4155 5.47897 48.7321 5.50828 49.0849 5.50828C49.4474 5.50828 49.7132 5.44966 49.88 5.33731C50.0443 5.22495 50.1265 5.05153 50.1265 4.81705C50.1265 4.35298 49.8583 4.12338 49.3218 4.12338V4.12582ZM55.2233 9.01817C54.3533 9.01817 53.6718 8.7495 53.1812 8.21703C52.6906 7.68456 52.4465 6.93959 52.4465 5.98457C52.4465 5.03688 52.6906 4.2968 53.1812 3.76189C53.6718 3.22942 54.3533 2.96319 55.2233 2.96319C56.0933 2.96319 56.7747 3.22942 57.2653 3.76189C57.7559 4.2968 58 5.03688 58 5.98457C58 6.93715 57.7559 7.68456 57.2653 8.21703C56.7747 8.7495 56.0933 9.01817 55.2233 9.01817ZM55.2233 7.76272C55.9918 7.76272 56.376 7.17163 56.376 5.98457C56.376 4.80484 55.9893 4.21619 55.2233 4.21619C54.4548 4.21619 54.0705 4.80484 54.0705 5.98457C54.0705 7.17163 54.4572 7.76272 55.2233 7.76272ZM38.6836 12.3693C39.6623 11.6219 40.9649 11.3728 42.0428 11.3728C43.0529 11.3728 43.8698 11.5926 44.0438 11.8246C44.4063 12.3131 43.9495 15.6936 42.1708 17.3056C41.9002 17.5547 41.6392 17.4204 41.76 17.0931C42.1612 16.0135 43.0553 13.5857 42.63 12.997C42.2071 12.4059 39.8315 12.7161 38.7633 12.8554C38.599 12.8749 38.5048 12.8065 38.4927 12.7064V12.6502C38.5023 12.5623 38.5652 12.4597 38.6836 12.3693ZM14.0723 11.9492C14.0805 11.8868 14.1112 11.8297 14.1585 11.7887C14.2057 11.7478 14.2662 11.7258 14.3284 11.7269C14.3937 11.7269 14.4662 11.7489 14.5435 11.7953C19.0382 14.616 24.2217 16.1148 29.5123 16.1234C33.1857 16.1234 37.2215 15.293 40.9335 13.5759C41.4942 13.3194 41.963 13.9765 41.4168 14.421C38.1036 17.0833 33.2993 18.5 29.1643 18.5C23.3716 18.5 18.1516 16.165 14.2028 12.2789C14.1347 12.2166 14.0888 12.1333 14.0723 12.042V11.9492Z" fill="white"/>
</svg>
