<svg xmlns="http://www.w3.org/2000/svg" width="269.43" height="34.629" viewBox="0 0 269.43 34.629">
  <g id="LOGO" transform="translate(134.715 17.314)">
    <g id="Raggruppa_4399" data-name="Raggruppa 4399" transform="translate(-134.715 -17.315)">
      <path id="Tracciato_4870" data-name="Tracciato 4870" d="M68.083.345H62.059L47.267,14.6V.345h-4.65V34.119h4.65V22l1.524-1.828L63.82,34.119h5.87L51.842,16.431Z" fill="#fff"/>
      <rect id="Rettangolo_4595" data-name="Rettangolo 4595" width="4.65" height="33.772" transform="translate(72.773 0.345)" fill="#fff"/>
      <path id="Tracciato_4871" data-name="Tracciato 4871" d="M108.951,5.681q-.531-4.268-5.184-5.259L86.613.345V34.118h4.65V19.557h6.252L104,34.119H109.1l-6.478-14.562,1.142-.079q4.651-.987,5.184-5.257L109.027,13l0-6.1ZM104.378,13l-.153.685a1.848,1.848,0,0,1-1.068,1.069l-.684.151-11.208,0V4.995h11.206l.684.15a1.849,1.849,0,0,1,1.069,1.07l.153.686Z" fill="#fff"/>
      <path id="Tracciato_4872" data-name="Tracciato 4872" d="M127.138.268l-9,23.864v9.986h4.649V25.733h13.114l0,8.386h4.727V24.132L131.713.269Zm-2.9,20.814,5.108-13.8,5.183,13.8Z" fill="#fff"/>
      <path id="Tracciato_4873" data-name="Tracciato 4873" d="M168.855.346H146.366V5h8.918V34.118h4.65V5h8.922Z" fill="#fff"/>
      <path id="Tracciato_4874" data-name="Tracciato 4874" d="M199.238,5V.345H176.75V34.118h22.49V29.469H181.4V19.556h13.111V14.907H181.4V5Z" fill="#fff"/>
      <path id="Tracciato_4875" data-name="Tracciato 4875" d="M227.475,2.246A5.414,5.414,0,0,0,224.128.5L222.834.42l-9.2,0L212.337.5a5.729,5.729,0,0,0-3.422,1.749,6.862,6.862,0,0,0-1.826,3.424L207.013,27.5l.076,1.292a6.859,6.859,0,0,0,1.824,3.423,5.746,5.746,0,0,0,3.424,1.75l1.293.076h9.2l1.295-.077a5.427,5.427,0,0,0,3.346-1.75,6.615,6.615,0,0,0,1.9-3.422l.076-1.294V24.915h-4.639V27.5l-.152.76a1.835,1.835,0,0,1-1.065.988l-.761.153h-9.2l-.762-.152a1.593,1.593,0,0,1-1.064-.987l-.154-.761,0-20.539.153-.684a1.837,1.837,0,0,1,1.064-1.066l.761-.152h9.2l.763.153a2.172,2.172,0,0,1,1.063,1.064l.153.686V9.55h4.639V6.963l-.077-1.293A6.623,6.623,0,0,0,227.475,2.246Z" fill="#fff"/>
      <path id="Tracciato_4876" data-name="Tracciato 4876" d="M254.6,14.951H241.52l0-14.529H236.88v33.7l4.641,0V19.59H254.6V34.119h4.716V.42H254.6Z" fill="#fff"/>
      <path id="Tracciato_4877" data-name="Tracciato 4877" d="M269.147,2.385A3.566,3.566,0,0,0,264.532.536a3.564,3.564,0,0,0-1.129.739,3.451,3.451,0,0,0-.767,1.11,3.391,3.391,0,0,0-.283,1.383,3.49,3.49,0,0,0,2.179,3.266,3.684,3.684,0,0,0,2.734,0,3.452,3.452,0,0,0,1.12-.739,3.571,3.571,0,0,0,.761-1.12,3.438,3.438,0,0,0,.283-1.407A3.358,3.358,0,0,0,269.147,2.385Zm-.578,2.583a2.906,2.906,0,0,1-.611.955,2.863,2.863,0,0,1-.918.636,2.821,2.821,0,0,1-1.139.23,2.873,2.873,0,0,1-1.152-.23,2.842,2.842,0,0,1-.923-.636,2.925,2.925,0,0,1-.612-.955,3.2,3.2,0,0,1-.221-1.2,3.111,3.111,0,0,1,.221-1.176,2.9,2.9,0,0,1,.612-.946A2.878,2.878,0,0,1,265.9.785a2.8,2.8,0,0,1,1.139.231,2.847,2.847,0,0,1,1.529,1.576,3.073,3.073,0,0,1,.222,1.176A3.16,3.16,0,0,1,268.569,4.968Z" fill="#fff"/>
      <path id="Tracciato_4878" data-name="Tracciato 4878" d="M267.247,3.717a1,1,0,0,0,.311-.815,1.078,1.078,0,0,0-.354-.884,1.679,1.679,0,0,0-1.086-.292h-1.592V5.839h.641V4.07h.678l1.12,1.769h.686l-1.175-1.817A1.4,1.4,0,0,0,267.247,3.717Zm-1.412-.165h-.668V2.244h.848a2.409,2.409,0,0,1,.324.023.925.925,0,0,1,.292.09.547.547,0,0,1,.206.188.579.579,0,0,1,.081.329.693.693,0,0,1-.089.381.536.536,0,0,1-.24.2,1.04,1.04,0,0,1-.344.081C266.116,3.547,265.979,3.552,265.835,3.552Z" fill="#fff"/>
      <path id="Tracciato_4879" data-name="Tracciato 4879" d="M34.628,0H0V34.629H34.629ZM13.271,4.558V18.251l-7.45-7.5A13.343,13.343,0,0,1,13.271,4.558Zm4.2,25.925A13.311,13.311,0,0,1,4.391,14.751L19.9,30.261A13.3,13.3,0,0,1,17.47,30.483Zm6.437-1.659L17.159,22V20.613H30.323A13.327,13.327,0,0,1,23.907,28.824ZM17.159,16.648V3.886l.31,0A13.3,13.3,0,0,1,30.76,16.648Z" fill="#fff"/>
    </g>
  </g>
</svg>
