<?xml version="1.0" standalone="no"?>
<!DOCTYPE svg PUBLIC "-//W3C//DTD SVG 20010904//EN"
 "http://www.w3.org/TR/2001/REC-SVG-20010904/DTD/svg10.dtd">
<svg version="1.0" xmlns="http://www.w3.org/2000/svg"
 width="800.000000pt" height="185.000000pt" viewBox="0 0 800.000000 185.000000"
 preserveAspectRatio="xMidYMid meet">

<g transform="translate(0.000000,185.000000) scale(0.100000,-0.100000)"
fill="#000000" stroke="none">
<path d="M200 1817 c-30 -16 -51 -37 -67 -67 l-23 -43 0 -777 0 -777 23 -43
c16 -30 37 -51 67 -67 l43 -23 772 0 772 0 44 23 c27 15 52 38 66 63 l23 39 0
785 0 785 -23 39 c-14 25 -39 48 -66 63 l-44 23 -772 0 -772 0 -43 -23z m1163
-176 c102 -27 199 -74 242 -116 42 -43 87 -136 115 -240 27 -101 40 -370 20
-431 -34 -108 -107 -164 -224 -172 -71 -4 -189 17 -210 38 -20 20 13 33 76 31
56 -2 66 1 87 23 30 32 30 102 1 176 -66 168 -289 388 -450 445 -48 17 -123
20 -149 5 -28 -14 -42 -60 -39 -121 2 -42 0 -54 -12 -54 -21 0 -37 39 -50 119
-24 151 33 266 156 312 60 22 333 13 437 -15z m-324 -370 c35 -64 -101 -252
-224 -311 -69 -33 -177 -52 -243 -42 -67 11 -50 26 35 32 97 7 174 41 237 103
48 48 89 120 101 177 4 19 12 41 17 48 16 19 66 15 77 -7z m161 -106 c33 -17
48 -56 32 -88 -18 -41 -134 -157 -220 -222 -108 -81 -246 -152 -377 -195 -119
-38 -168 -69 -202 -127 -93 -159 21 -351 210 -353 37 0 47 -4 47 -16 0 -28
-136 -14 -193 19 -101 60 -153 159 -145 276 10 135 73 204 254 274 65 26 155
70 199 98 94 60 213 178 270 266 35 55 62 80 88 82 4 1 21 -6 37 -14z m165
-229 c24 -36 6 -61 -52 -75 -162 -41 -269 -171 -280 -342 -3 -43 -10 -79 -14
-79 -16 0 -22 51 -16 131 10 151 103 290 238 358 75 38 103 39 124 7z"/>
<path d="M3755 1817 c-77 -20 -142 -57 -190 -108 -85 -91 -121 -198 -113 -339
7 -120 48 -209 129 -285 80 -73 147 -99 264 -99 98 0 149 18 208 72 l27 26 0
-26 c0 -52 7 -58 76 -58 l64 0 0 220 0 220 -170 0 -170 0 0 -75 0 -75 75 0
c81 0 86 -4 58 -50 -33 -57 -136 -91 -211 -71 -88 24 -133 92 -140 211 -10
165 57 261 182 262 72 1 126 -26 149 -74 l19 -38 99 0 c97 0 99 0 99 24 0 62
-59 162 -119 202 -92 61 -235 87 -336 61z"/>
<path d="M2260 1401 l0 -421 183 0 c100 0 215 5 255 10 167 22 251 98 252 228
0 89 -36 145 -125 190 -22 12 -35 21 -28 22 21 0 85 63 99 97 18 42 18 137 0
171 -18 34 -61 75 -106 98 -31 17 -64 19 -282 22 l-248 3 0 -420z m396 218
c42 -34 35 -96 -13 -118 -13 -6 -53 -11 -88 -11 l-65 0 0 76 0 77 75 -5 c41
-3 82 -11 91 -19z m32 -316 c30 -22 37 -42 28 -79 -9 -36 -60 -54 -151 -54
l-75 0 0 81 0 82 85 -5 c65 -3 92 -9 113 -25z"/>
<path d="M3080 1400 l0 -420 115 0 115 0 0 420 0 420 -115 0 -115 0 0 -420z"/>
<path d="M6342 885 c-71 -20 -105 -39 -148 -82 -85 -85 -96 -225 -23 -308 37
-42 104 -74 229 -110 173 -49 210 -76 188 -134 -12 -33 -36 -49 -84 -56 -83
-13 -164 32 -164 91 0 24 0 24 -125 24 -142 0 -137 4 -110 -86 37 -124 177
-204 360 -204 229 0 375 112 375 287 0 70 -17 109 -68 155 -51 47 -85 61 -238
102 -143 38 -174 55 -174 95 0 43 30 64 96 64 62 0 107 -24 112 -62 3 -20 8
-21 122 -21 l118 0 -9 41 c-22 98 -72 153 -171 191 -71 27 -214 33 -286 13z"/>
<path d="M7735 881 c-41 -18 -60 -51 -60 -103 0 -43 4 -53 33 -79 24 -22 42
-29 72 -29 30 0 48 7 72 29 29 26 33 35 33 80 0 41 -5 55 -26 77 -28 28 -89
40 -124 25z m106 -40 c37 -37 38 -79 3 -120 -20 -24 -34 -31 -62 -31 -85 1
-122 91 -63 151 40 39 82 39 122 0z"/>
<path d="M7730 785 c0 -48 2 -55 20 -55 12 0 20 7 20 18 1 16 1 16 14 0 25
-33 41 -22 44 29 2 54 -6 63 -60 63 l-38 0 0 -55z m68 13 c-6 -18 -28 -21 -28
-4 0 9 7 16 16 16 9 0 14 -5 12 -12z"/>
<path d="M2260 780 l0 -100 115 0 115 0 -1 -177 c0 -194 -9 -239 -49 -261 -38
-20 -97 -8 -142 29 l-40 32 -72 -72 -71 -72 45 -43 c69 -65 142 -89 260 -84
82 3 102 8 150 33 59 33 112 94 131 153 8 24 14 143 16 350 l5 312 -231 0
-231 0 0 -100z"/>
<path d="M2830 460 l0 -420 240 0 240 0 0 100 0 100 -125 0 -125 0 0 65 0 65
85 0 85 0 0 90 0 90 -85 0 -85 0 0 65 0 65 125 0 125 0 0 100 0 100 -240 0
-240 0 0 -420z"/>
<path d="M5200 460 l0 -420 115 0 115 0 0 150 0 150 80 0 80 0 0 95 0 95 -80
0 -80 0 0 70 0 70 120 0 120 0 0 105 0 105 -235 0 -235 0 0 -420z"/>
<path d="M5780 460 l0 -420 115 0 115 0 0 420 0 420 -115 0 -115 0 0 -420z"/>
<path d="M6920 460 l0 -420 120 0 120 0 0 160 0 160 115 0 115 0 0 -160 0
-160 115 0 115 0 0 420 0 420 -115 0 -114 0 -3 -157 -3 -158 -112 -3 -112 -3
-3 158 -3 158 -117 3 -118 3 0 -421z"/>
<path d="M3420 450 l0 -420 238 2 237 3 3 97 3 98 -126 0 -125 0 0 320 0 320
-115 0 -115 0 0 -420z"/>
<path d="M4000 450 l0 -420 240 0 240 0 0 100 0 100 -125 0 -125 0 0 320 0
320 -115 0 -115 0 0 -420z"/>
<path d="M4400 864 c0 -3 56 -106 125 -228 l125 -223 0 -191 0 -192 115 0 115
0 0 188 0 187 101 180 c55 99 114 204 130 233 l30 52 -133 0 -133 0 -42 -78
c-70 -129 -61 -127 -122 -18 l-52 96 -130 0 c-71 0 -129 -3 -129 -6z"/>
</g>
</svg>
