<?xml version="1.0" standalone="no"?>
<!DOCTYPE svg PUBLIC "-//W3C//DTD SVG 20010904//EN"
 "http://www.w3.org/TR/2001/REC-SVG-20010904/DTD/svg10.dtd">
<svg version="1.0" xmlns="http://www.w3.org/2000/svg"
 width="1168.000000pt" height="1382.000000pt" viewBox="0 0 1168.000000 1382.000000"
 preserveAspectRatio="xMidYMid meet">

<g transform="translate(0.000000,1382.000000) scale(0.100000,-0.100000)"
fill="#000000" stroke="none">
<path d="M5385 13763 c-106 -8 -252 -28 -355 -48 -96 -18 -204 -36 -240 -39
-36 -3 -109 -19 -164 -35 -54 -17 -112 -31 -128 -31 -16 0 -71 -16 -122 -35
-52 -19 -99 -35 -105 -35 -6 0 -35 -13 -65 -29 -29 -15 -66 -33 -82 -39 -16
-6 -62 -24 -103 -41 -40 -17 -81 -31 -90 -31 -17 0 -102 -37 -111 -49 -10 -12
-72 -41 -88 -41 -9 0 -32 -9 -50 -20 -18 -11 -37 -20 -42 -20 -5 0 -29 -13
-52 -29 -24 -16 -56 -33 -72 -37 -15 -3 -47 -17 -69 -30 -23 -13 -57 -31 -74
-39 -18 -8 -39 -29 -48 -45 -11 -21 -23 -30 -41 -30 -15 0 -27 -7 -30 -17 -12
-39 -23 -48 -85 -64 -93 -23 -288 -136 -303 -175 -3 -8 -10 -14 -17 -14 -6 0
-29 -16 -52 -35 -22 -19 -45 -35 -50 -35 -10 0 -87 -57 -146 -107 -21 -18 -43
-33 -48 -33 -5 0 -18 -10 -30 -22 -11 -13 -53 -53 -94 -89 -41 -37 -119 -107
-173 -155 -55 -49 -145 -139 -199 -199 -55 -61 -155 -167 -223 -238 -68 -70
-124 -131 -124 -136 0 -5 -13 -22 -30 -38 -16 -15 -30 -33 -30 -39 0 -6 -9
-19 -20 -29 -11 -10 -48 -57 -82 -104 -34 -47 -70 -95 -80 -106 -29 -31 -89
-107 -133 -170 -22 -31 -52 -71 -68 -89 -15 -19 -27 -38 -27 -42 0 -5 -16 -31
-35 -58 -19 -27 -35 -54 -35 -59 0 -5 -9 -22 -21 -38 -25 -36 -98 -172 -133
-249 -9 -19 -36 -69 -61 -110 -25 -41 -50 -86 -57 -100 -21 -46 -49 -105 -57
-120 -25 -45 -50 -110 -56 -147 -3 -23 -12 -44 -19 -46 -7 -3 -22 -23 -33 -44
-11 -21 -29 -56 -40 -78 -11 -22 -28 -62 -36 -90 -26 -82 -42 -123 -58 -142
-8 -10 -20 -29 -26 -43 -13 -27 -81 -222 -90 -255 -3 -11 -18 -56 -33 -100
-15 -44 -33 -98 -40 -120 -7 -22 -21 -58 -31 -80 -9 -23 -21 -54 -24 -70 -4
-17 -20 -72 -36 -122 -16 -51 -33 -128 -38 -170 -5 -43 -23 -119 -40 -169 -17
-51 -31 -105 -31 -120 0 -30 -29 -212 -54 -343 -14 -72 -31 -204 -57 -439 -10
-91 -9 -105 6 -128 16 -25 16 -28 -6 -58 -20 -27 -25 -51 -36 -201 -17 -212
-20 -822 -4 -886 6 -25 15 -111 21 -190 6 -79 15 -196 21 -259 6 -63 15 -164
20 -225 9 -118 15 -154 48 -283 12 -46 37 -174 56 -285 54 -319 62 -357 95
-451 16 -50 30 -100 30 -113 0 -12 14 -60 31 -105 16 -46 34 -103 39 -128 10
-53 68 -221 104 -305 14 -31 26 -64 26 -71 0 -8 16 -48 35 -90 19 -41 35 -80
35 -85 0 -8 20 -51 106 -236 19 -39 34 -74 34 -78 0 -4 16 -39 35 -76 19 -38
35 -75 35 -82 0 -12 33 -78 119 -237 16 -30 38 -64 49 -76 10 -11 25 -31 32
-45 16 -28 51 -69 102 -117 31 -28 35 -38 27 -53 -8 -17 -6 -19 19 -19 27 0
30 -4 51 -73 12 -40 33 -89 46 -109 14 -21 25 -43 25 -49 0 -7 8 -22 19 -33
10 -12 35 -46 56 -76 21 -30 42 -59 47 -65 19 -23 58 -82 77 -116 11 -20 34
-49 51 -65 16 -16 30 -35 30 -41 0 -7 9 -18 20 -25 26 -16 153 -165 200 -235
87 -128 588 -631 760 -762 36 -28 81 -64 101 -80 20 -17 41 -31 46 -31 6 0 17
-7 24 -16 8 -9 30 -27 49 -41 19 -13 62 -44 95 -68 100 -75 204 -145 214 -145
5 0 22 -10 38 -23 28 -23 188 -117 198 -117 3 0 24 -12 48 -27 23 -16 60 -37
82 -49 22 -11 84 -44 138 -72 53 -29 102 -52 108 -52 6 0 38 -16 70 -35 33
-19 66 -35 74 -35 7 0 40 -14 74 -30 33 -17 75 -33 93 -37 18 -3 58 -17 88
-30 114 -50 285 -106 470 -153 47 -12 125 -33 174 -46 49 -13 119 -29 155 -35
36 -6 127 -21 201 -35 246 -43 332 -49 780 -48 443 1 476 4 755 53 61 11 171
30 245 42 74 12 151 28 170 35 19 7 64 17 100 22 89 13 252 71 428 153 46 22
89 39 95 39 21 0 216 83 234 100 10 9 41 22 68 29 28 8 73 29 102 47 28 19 56
34 61 34 5 0 47 18 93 39 80 38 129 77 142 112 4 11 13 15 30 12 20 -4 31 4
57 36 25 31 40 41 62 41 53 0 127 42 286 162 46 35 94 70 106 78 75 48 224
163 236 181 3 4 15 12 27 16 54 20 727 689 793 788 47 69 171 228 187 238 7 4
13 14 13 21 0 7 14 25 30 41 17 16 30 33 30 38 0 5 15 27 33 47 17 21 54 69
82 106 27 38 60 80 72 93 13 13 23 28 23 32 0 5 16 32 35 59 19 27 35 54 35
59 0 4 9 19 19 33 20 24 102 180 134 253 22 50 43 87 85 148 17 26 32 52 32
56 0 4 27 61 60 127 34 68 60 132 60 150 0 19 9 40 24 55 33 34 100 173 119
247 10 40 27 76 46 98 17 19 31 42 31 52 0 9 15 60 34 112 19 52 42 120 51
150 10 30 22 60 26 66 5 5 15 37 24 70 8 32 28 93 44 134 63 165 93 275 102
374 6 63 15 106 25 117 8 9 19 40 24 70 6 30 26 135 45 235 19 100 35 196 35
215 0 19 7 72 15 119 26 148 55 359 55 403 0 32 -5 45 -21 55 -21 13 -20 13 6
48 25 33 26 41 41 274 19 306 14 771 -10 910 -9 52 -16 149 -17 215 0 66 -4
143 -10 170 -5 28 -13 102 -19 165 -10 126 -24 201 -75 420 -18 80 -36 185
-40 233 -3 49 -15 123 -27 165 -11 42 -24 97 -28 122 -5 25 -22 88 -39 140
-17 52 -31 103 -31 112 0 9 -14 59 -32 110 -17 51 -34 109 -39 128 -10 48 -84
257 -114 326 -14 31 -25 61 -25 67 0 6 -16 43 -35 84 -19 41 -35 78 -35 83 0
10 -31 79 -96 215 -19 39 -34 75 -34 80 0 6 -13 37 -29 70 -16 33 -52 107 -80
165 -28 58 -62 121 -76 140 -14 18 -25 39 -25 46 0 6 -7 18 -16 25 -9 7 -33
39 -55 70 -21 31 -54 73 -73 93 -21 23 -32 43 -29 55 4 15 -3 20 -31 25 -28 5
-36 12 -37 29 -1 51 -39 130 -122 253 -48 73 -94 137 -102 144 -8 7 -15 18
-15 24 0 7 -13 27 -30 46 -16 19 -29 39 -30 44 0 11 -34 51 -127 153 -70 77
-125 144 -148 182 -5 9 -19 26 -30 37 -21 22 -42 46 -179 200 -140 158 -378
386 -531 509 -71 57 -102 82 -135 107 -19 14 -45 35 -57 47 -12 12 -25 21 -29
21 -4 0 -26 16 -50 35 -23 19 -47 35 -52 35 -5 0 -16 7 -23 16 -13 15 -157
114 -167 114 -2 0 -26 16 -52 35 -26 19 -51 35 -55 35 -5 0 -22 10 -39 23 -17
13 -60 38 -95 56 -35 17 -70 38 -78 46 -8 8 -21 15 -28 15 -13 0 -73 35 -102
60 -7 5 -17 10 -23 10 -7 0 -39 16 -71 35 -33 19 -65 35 -71 35 -6 0 -40 15
-77 34 -105 54 -196 96 -207 96 -12 0 -131 46 -156 60 -10 6 -26 10 -36 10
-10 0 -42 11 -71 25 -28 14 -75 32 -104 39 -29 8 -92 28 -142 45 -49 17 -99
31 -110 31 -11 0 -67 14 -125 30 -58 17 -132 34 -165 39 -33 4 -132 22 -220
39 -89 18 -231 37 -320 44 -236 17 -698 18 -910 1z m845 -63 c85 -11 175 -20
199 -20 24 0 121 -15 215 -34 94 -18 202 -39 240 -46 38 -7 97 -21 130 -32 34
-10 94 -23 135 -28 82 -11 200 -38 216 -50 6 -4 35 -15 65 -24 30 -9 75 -29
99 -46 24 -16 56 -30 71 -30 15 0 53 -9 86 -21 32 -11 68 -23 79 -26 11 -4 36
-17 56 -29 20 -12 65 -37 100 -54 80 -39 112 -57 172 -98 26 -17 53 -32 60
-32 7 0 36 -16 64 -35 29 -19 58 -35 65 -35 7 0 32 -13 55 -28 37 -24 96 -59
174 -103 16 -9 44 -28 63 -43 19 -14 39 -26 44 -26 4 0 27 -16 49 -35 23 -19
44 -35 48 -35 3 0 42 -28 87 -62 44 -35 91 -70 103 -78 13 -8 36 -25 52 -38
15 -13 62 -49 103 -81 41 -32 125 -104 185 -160 61 -57 121 -111 135 -120 33
-21 88 -75 140 -136 23 -27 72 -82 109 -120 201 -214 341 -376 341 -395 0 -4
29 -36 65 -72 36 -37 65 -71 65 -76 0 -5 9 -17 21 -28 12 -10 35 -45 53 -77
47 -89 59 -108 94 -159 17 -26 32 -51 32 -55 0 -5 8 -18 18 -29 19 -20 107
-151 130 -194 7 -13 17 -27 21 -30 4 -3 23 -32 41 -65 18 -33 38 -67 45 -75 6
-8 24 -40 40 -70 15 -30 42 -82 60 -115 32 -61 41 -77 66 -130 8 -16 24 -48
35 -70 12 -22 37 -74 56 -115 19 -41 51 -109 71 -151 21 -42 37 -81 37 -88 0
-6 16 -42 35 -80 19 -37 35 -74 35 -80 0 -7 12 -38 26 -69 15 -31 30 -70 34
-87 26 -100 119 -343 140 -367 8 -9 28 -61 44 -115 15 -54 41 -141 57 -193 16
-52 33 -117 38 -145 4 -27 22 -115 39 -195 56 -260 85 -435 102 -605 6 -66 22
-185 35 -265 12 -80 26 -212 29 -295 4 -82 12 -189 18 -237 9 -67 9 -119 0
-220 -7 -73 -15 -277 -18 -453 -5 -283 -9 -342 -35 -511 -16 -104 -31 -219
-35 -255 -3 -35 -18 -134 -34 -219 -16 -85 -34 -202 -41 -260 -6 -58 -20 -148
-31 -200 -11 -52 -24 -116 -28 -142 -5 -25 -20 -75 -35 -110 -14 -34 -32 -90
-40 -123 -7 -33 -25 -93 -39 -134 -14 -41 -26 -81 -26 -90 0 -15 -44 -140 -61
-173 -5 -10 -9 -26 -9 -36 0 -10 -16 -55 -35 -101 -19 -45 -35 -89 -35 -96 0
-8 -13 -37 -30 -65 -16 -28 -30 -57 -30 -65 0 -8 -14 -43 -30 -77 -17 -34 -35
-81 -41 -103 -11 -43 -58 -154 -92 -220 -21 -39 -28 -54 -63 -127 -17 -36 -17
-38 0 -57 19 -20 18 -21 -18 -36 -22 -9 -36 -22 -36 -33 0 -10 -16 -56 -35
-102 -19 -46 -35 -90 -35 -96 0 -7 -4 -14 -9 -16 -4 -1 -29 -35 -54 -74 -25
-40 -50 -75 -56 -79 -6 -3 -11 -13 -11 -21 0 -7 -16 -36 -35 -63 -19 -26 -35
-52 -35 -56 0 -4 -12 -22 -27 -40 -92 -109 -151 -188 -182 -245 -10 -19 -28
-44 -40 -54 -12 -11 -21 -23 -21 -28 0 -11 -99 -137 -123 -157 -10 -7 -17 -19
-17 -25 0 -7 -16 -27 -35 -46 -19 -19 -35 -40 -35 -46 0 -7 -6 -17 -14 -21 -7
-4 -32 -33 -55 -63 -23 -30 -60 -77 -81 -105 -34 -44 -122 -136 -264 -275 -26
-25 -51 -59 -57 -75 -7 -18 -32 -45 -61 -65 -67 -47 -417 -337 -484 -401 -12
-11 -33 -28 -46 -37 -14 -9 -64 -43 -111 -74 -47 -32 -88 -58 -91 -58 -13 0
-142 -85 -170 -112 -17 -15 -33 -28 -37 -28 -4 0 -31 -16 -60 -35 -30 -19 -58
-35 -63 -35 -5 0 -33 -16 -62 -35 -29 -19 -56 -35 -60 -35 -4 0 -21 -11 -38
-23 -29 -22 -159 -87 -316 -159 -36 -17 -92 -43 -125 -59 -33 -16 -64 -29 -68
-29 -4 0 -42 -16 -83 -35 -41 -19 -79 -35 -85 -35 -6 0 -50 -15 -98 -33 -239
-92 -361 -126 -541 -152 -63 -8 -149 -22 -190 -30 -205 -40 -350 -54 -659 -66
-253 -10 -349 -10 -445 -1 -66 7 -144 12 -173 12 -28 0 -132 14 -230 31 -98
17 -205 35 -238 39 -33 4 -107 19 -165 33 -58 14 -161 37 -230 51 -267 54
-258 51 -430 141 -14 7 -59 21 -100 30 -83 18 -356 148 -407 194 -7 6 -24 16
-38 21 -15 6 -46 24 -70 40 -24 17 -50 30 -58 30 -8 0 -25 8 -38 19 -13 10
-47 30 -74 43 -28 14 -85 47 -128 74 -43 27 -90 56 -106 65 -15 8 -46 29 -67
45 -21 17 -56 41 -76 53 -21 12 -38 26 -38 31 0 5 -9 11 -19 15 -11 3 -34 19
-53 35 -18 16 -39 30 -45 30 -7 0 -13 4 -13 8 0 5 -28 29 -62 55 -117 87 -141
107 -155 127 -8 11 -19 20 -25 20 -7 0 -26 15 -44 32 -49 50 -81 79 -179 161
-89 75 -161 145 -225 222 -18 22 -67 76 -109 120 -95 99 -178 195 -256 296
-22 28 -77 92 -123 143 -45 50 -85 102 -89 116 -3 14 -24 54 -47 90 -23 36
-46 72 -51 81 -6 9 -38 58 -72 110 -35 51 -63 96 -63 100 0 3 -7 12 -15 19
-12 10 -43 59 -105 168 -9 15 -29 47 -45 72 -51 80 -184 338 -275 535 -15 33
-44 94 -64 135 -20 41 -36 79 -36 84 0 5 -16 42 -35 83 -19 41 -35 79 -35 85
0 7 -15 46 -34 88 -35 79 -95 248 -103 290 -2 14 -20 57 -38 95 -43 89 -95
228 -95 255 0 11 -16 67 -35 124 -19 57 -35 118 -35 134 0 17 -14 91 -31 164
-46 203 -93 486 -109 656 -5 52 -11 101 -14 110 -10 32 -45 387 -52 522 -4 81
-12 146 -20 162 -11 21 -11 33 -2 55 6 15 12 53 14 83 1 30 9 240 18 465 10
259 21 445 31 505 9 52 20 131 24 175 7 72 31 229 91 585 10 63 27 160 36 215
15 94 31 158 68 265 8 25 29 95 46 155 17 61 43 144 57 185 14 41 33 102 43
135 31 102 86 248 114 299 14 27 26 53 26 59 0 6 13 38 30 73 16 34 32 75 36
91 6 27 52 142 98 246 11 26 24 47 28 47 5 0 8 8 8 18 0 10 7 28 16 41 9 13
18 44 19 70 1 38 6 49 26 60 20 11 32 35 55 110 18 58 42 112 61 138 18 24 33
46 33 49 0 3 16 26 35 51 19 25 35 50 35 56 0 5 16 32 35 58 19 27 35 54 35
60 0 11 37 60 78 104 10 11 29 36 43 55 13 19 33 46 45 60 12 14 28 37 35 51
17 32 75 112 112 155 15 17 27 36 27 41 0 5 16 24 35 43 19 19 35 38 35 43 0
5 26 39 58 76 32 36 73 87 92 114 18 26 37 47 42 47 4 0 8 6 8 13 0 19 40 63
203 227 75 76 137 145 137 153 0 14 21 34 128 120 51 41 100 82 147 123 17 15
55 45 85 67 30 23 73 57 96 77 22 19 59 51 82 70 23 19 58 50 78 68 20 17 43
32 50 32 7 0 14 3 16 8 5 12 76 62 88 62 6 0 23 9 38 19 33 24 135 90 176 115
17 10 33 22 36 26 3 4 32 22 65 40 33 18 65 39 72 46 7 7 23 16 35 20 12 3 43
22 70 40 26 19 53 34 60 34 7 0 33 14 57 30 25 17 56 33 70 37 15 3 37 13 51
22 14 9 41 23 60 32 19 8 69 32 110 52 41 21 79 37 83 37 4 0 35 14 69 30 33
17 65 30 72 30 6 0 49 15 96 33 47 19 112 43 145 54 33 12 80 28 105 37 123
42 255 77 312 82 34 3 146 20 248 39 375 69 935 94 1240 55z"/>
<path d="M5415 13560 c-71 -10 -192 -25 -268 -34 -119 -14 -264 -41 -347 -65
-17 -5 -26 -16 -28 -34 -2 -15 1 -27 7 -27 6 0 80 14 163 30 84 17 194 35 243
40 50 5 131 16 180 24 51 9 206 21 357 26 277 11 403 5 570 -25 46 -9 126 -20
178 -25 99 -10 237 -36 279 -51 13 -6 49 -13 80 -18 57 -8 250 -48 374 -78 51
-12 71 -13 80 -4 7 7 7 14 1 19 -24 22 -153 64 -299 97 -88 20 -196 45 -240
56 -107 25 -178 35 -535 74 -194 21 -624 18 -795 -5z"/>
<path d="M4593 13379 c-13 -5 -23 -16 -23 -24 0 -23 64 -16 68 6 4 21 -16 29
-45 18z"/>
<path d="M4405 13355 c-22 -8 -46 -15 -53 -15 -12 0 -248 -97 -306 -126 -16
-8 -36 -14 -44 -14 -9 0 -44 -18 -79 -41 -48 -31 -69 -40 -88 -35 -29 7 -59
-6 -94 -40 -13 -13 -29 -24 -36 -24 -7 0 -15 -6 -18 -12 -6 -16 -61 -44 -112
-57 -22 -6 -55 -21 -74 -33 -19 -13 -42 -28 -50 -33 -9 -6 -35 -23 -58 -38
-24 -15 -46 -27 -50 -27 -5 0 -28 -16 -52 -35 -24 -19 -48 -35 -53 -35 -4 0
-31 -16 -58 -35 -27 -19 -54 -35 -59 -35 -14 0 -104 -79 -115 -100 -4 -10 -20
-24 -35 -31 -14 -8 -42 -28 -61 -45 -19 -17 -81 -73 -138 -124 -87 -78 -105
-90 -118 -79 -13 10 -23 4 -67 -38 -69 -66 -155 -133 -173 -133 -8 0 -14 -4
-14 -8 0 -19 -156 -189 -180 -197 -10 -3 -33 -31 -51 -61 -19 -31 -44 -71 -56
-90 -17 -26 -19 -34 -8 -34 25 0 85 60 85 85 0 33 10 55 25 55 8 0 47 18 88
40 71 39 76 43 82 82 5 30 18 52 48 80 23 22 43 34 45 29 5 -15 23 -14 41 4 9
8 39 33 66 55 28 22 64 52 81 67 17 16 55 46 84 68 29 22 87 69 129 105 100
86 275 213 359 261 43 24 155 96 182 117 14 10 59 38 100 61 41 24 82 47 90
52 32 19 256 129 262 129 4 0 30 14 58 30 28 17 58 30 66 30 8 0 38 14 68 30
29 17 77 37 106 46 64 19 130 59 130 79 0 22 18 27 42 11 12 -9 32 -13 47 -10
49 10 111 27 111 30 0 1 -4 14 -10 28 -11 29 -27 31 -85 11z"/>
<path d="M7450 13266 c0 -1 5 -17 11 -35 10 -29 14 -31 60 -31 38 0 52 -4 61
-20 7 -11 22 -20 34 -20 12 0 38 -7 57 -15 20 -8 51 -15 69 -15 l33 1 -34 29
c-18 16 -57 34 -85 41 -62 15 -131 43 -140 58 -6 10 -66 16 -66 7z"/>
<path d="M7775 13100 c-9 -16 -12 -30 -7 -30 4 0 21 14 37 30 27 29 28 30 7
30 -14 0 -27 -11 -37 -30z"/>
<path d="M7847 13095 c-3 -20 1 -29 23 -40 14 -7 33 -21 40 -30 7 -9 30 -24
49 -34 113 -55 257 -136 361 -201 39 -25 86 -54 104 -65 78 -48 176 -117 176
-125 0 -5 9 -11 19 -15 10 -3 30 -16 42 -28 13 -13 49 -40 79 -62 71 -50 167
-124 194 -150 93 -89 303 -265 315 -265 30 0 44 16 33 37 -14 25 -120 125
-209 196 -70 55 -232 192 -268 226 -18 18 -94 71 -269 189 -38 26 -76 51 -85
57 -9 5 -34 21 -56 36 -22 14 -60 36 -84 49 -25 12 -51 29 -59 36 -7 8 -20 14
-28 14 -8 0 -37 16 -64 35 -27 19 -56 35 -63 35 -7 0 -36 16 -64 35 -29 19
-58 35 -64 35 -6 0 -34 14 -61 30 -26 17 -50 30 -52 30 -2 0 -6 -11 -9 -25z"/>
<path d="M4916 13082 c-3 -5 -25 -14 -49 -20 -23 -6 -68 -22 -99 -36 l-55 -25
-7 -288 c-7 -337 -15 -473 -27 -473 -8 0 -78 66 -255 240 -55 55 -103 100
-106 100 -3 0 -53 48 -110 106 l-105 105 -77 -35 c-43 -20 -86 -36 -97 -36
-25 0 -34 -22 -19 -50 10 -18 18 -21 48 -16 20 4 42 3 48 -1 21 -15 94 -197
94 -236 0 -21 43 -187 75 -287 8 -25 20 -78 26 -119 l12 -74 -37 -32 c-35 -29
-37 -33 -25 -58 11 -24 17 -27 43 -22 36 7 156 54 170 67 6 4 22 8 37 8 33 0
43 13 35 44 -4 18 -15 25 -47 29 -23 3 -52 15 -65 28 -29 28 -74 165 -129 402
-11 50 -11 58 0 55 19 -4 208 -181 370 -345 l130 -132 31 27 c39 33 43 57 54
408 4 139 11 257 15 264 8 12 55 -44 55 -66 0 -7 11 -30 25 -50 14 -21 28 -49
32 -63 3 -14 21 -52 39 -84 19 -32 34 -64 34 -70 0 -7 6 -21 13 -32 8 -11 19
-36 26 -55 11 -33 10 -35 -24 -66 -32 -28 -34 -34 -26 -58 6 -14 13 -26 16
-26 3 0 38 14 77 30 38 17 78 30 88 30 16 0 148 54 159 66 10 9 -34 44 -76 60
-35 14 -52 29 -79 71 -19 29 -34 58 -34 63 0 6 -10 27 -23 48 -13 20 -34 63
-47 95 -12 32 -28 64 -35 70 -12 13 -73 136 -119 241 l-26 59 35 45 c19 25 35
52 35 61 0 23 -16 45 -24 33z"/>
<path d="M6515 13068 c-38 -11 -86 -33 -106 -49 -20 -16 -40 -29 -43 -29 -14
0 -79 -80 -113 -139 -36 -63 -44 -90 -63 -206 -19 -116 26 -269 104 -354 113
-122 330 -189 476 -146 30 9 66 19 80 22 29 7 113 68 151 109 42 46 95 127
102 154 3 14 13 52 22 85 21 75 17 224 -8 272 -10 18 -17 39 -17 47 0 17 -11
31 -73 101 -116 130 -331 186 -512 133z m241 -72 c78 -21 137 -70 176 -145 33
-65 33 -66 33 -205 0 -141 0 -141 -35 -211 -51 -101 -129 -176 -211 -204 -82
-27 -103 -27 -166 -4 -54 20 -116 70 -146 119 -48 77 -52 95 -52 224 0 121 1
127 33 189 17 35 32 68 32 73 0 15 59 84 101 118 39 31 108 56 159 59 14 0 48
-5 76 -13z"/>
<path d="M8396 12319 c-12 -20 -14 -34 -8 -46 21 -41 22 -73 5 -91 -10 -10
-40 -45 -68 -77 -74 -89 -127 -146 -268 -290 l-127 -130 -58 2 c-37 1 -64 -3
-77 -13 -18 -14 -17 -16 35 -64 30 -28 69 -63 85 -78 51 -48 84 -65 100 -52
24 20 28 50 9 71 -19 21 -18 23 29 100 43 71 85 120 264 308 39 42 75 73 79
69 4 -4 2 -88 -4 -185 -7 -98 -19 -295 -29 -437 l-16 -259 29 -24 29 -23 35
38 c19 21 62 69 95 106 62 72 119 134 158 174 12 13 27 32 32 42 18 33 199
221 233 242 29 18 36 19 64 7 27 -11 32 -10 44 6 24 33 15 52 -51 106 -36 29
-65 56 -65 60 0 4 -16 16 -35 27 -34 20 -34 20 -40 1 -4 -10 -3 -43 0 -72 6
-48 4 -55 -27 -96 -18 -24 -42 -56 -53 -71 -11 -14 -31 -38 -45 -54 -40 -44
-158 -168 -193 -203 l-32 -33 -3 38 c-2 20 1 95 7 166 6 71 11 171 11 222 0
51 7 128 15 171 8 43 15 110 15 148 0 69 -1 71 -44 121 -25 28 -60 62 -79 76
l-34 26 -17 -29z"/>
<path d="M9292 12071 c-9 -25 -6 -34 30 -82 22 -30 49 -63 61 -74 12 -11 57
-61 100 -110 145 -166 155 -175 179 -175 13 0 32 7 42 15 19 14 16 18 -52 82
-39 38 -98 101 -132 142 -70 85 -204 231 -212 231 -4 0 -11 -13 -16 -29z"/>
<path d="M2740 11915 c-7 -8 -17 -15 -23 -15 -12 0 -217 -208 -217 -220 0 -16
39 -22 95 -15 48 6 58 4 85 -16 89 -68 469 -447 476 -475 3 -12 1 -31 -5 -42
-17 -31 -13 -67 9 -87 18 -17 22 -14 140 104 69 70 120 128 118 137 -4 21 -59
53 -65 38 -2 -6 -10 -19 -17 -29 -13 -18 -16 -17 -63 13 -27 17 -154 138 -282
267 l-233 235 21 26 c24 31 26 52 7 77 -16 21 -30 22 -46 2z"/>
<path d="M5850 11789 c-74 -4 -153 -12 -175 -18 -22 -6 -75 -11 -118 -11 -84
0 -300 -32 -383 -56 -28 -8 -60 -24 -70 -36 -19 -20 -19 -20 11 -15 17 3 75
13 130 22 55 9 141 23 190 31 152 26 358 38 455 25 48 -6 117 -11 155 -11 70
0 169 -14 375 -52 114 -21 185 -19 163 3 -12 12 -37 19 -198 54 -60 13 -155
35 -210 49 -105 27 -111 27 -325 15z"/>
<path d="M1928 11633 c-24 -32 -46 -60 -51 -61 -4 -2 -14 -17 -23 -34 -9 -17
-43 -64 -77 -105 -80 -97 -127 -161 -127 -171 0 -4 -15 -24 -34 -44 -26 -27
-37 -33 -50 -26 -10 5 -25 7 -34 3 -15 -6 -13 -10 10 -28 l27 -22 -35 -45
c-25 -31 -33 -50 -29 -65 4 -11 7 -28 6 -38 0 -19 -79 -141 -118 -184 -13 -13
-23 -28 -23 -33 0 -5 -26 -39 -59 -77 -32 -37 -71 -92 -87 -121 -16 -30 -39
-72 -52 -95 -19 -35 -22 -52 -17 -103 5 -61 5 -62 -25 -74 -16 -7 -30 -16 -30
-21 0 -4 -9 -11 -20 -14 -24 -8 -50 -54 -50 -90 0 -27 -30 -93 -52 -116 -17
-17 -88 -173 -88 -192 0 -7 -9 -32 -20 -54 -22 -45 -83 -217 -109 -308 -10
-33 -30 -86 -44 -117 -15 -31 -27 -65 -27 -76 0 -11 -12 -51 -26 -88 -38 -101
-90 -270 -104 -342 -10 -47 -19 -68 -36 -79 -22 -14 -23 -20 -18 -68 4 -33 0
-91 -10 -152 -20 -118 -53 -300 -66 -366 -6 -26 -10 -71 -10 -99 0 -27 -11
-116 -24 -197 -56 -335 -72 -857 -47 -1517 10 -262 12 -285 33 -325 18 -36 24
-67 30 -182 7 -153 12 -182 38 -239 l17 -39 8 88 c5 48 7 133 6 188 -3 120
-34 315 -52 326 -10 6 -8 14 10 33 21 23 22 26 7 32 -22 9 -48 61 -41 83 3 9
1 46 -4 82 -7 50 -6 67 5 80 11 12 14 71 14 295 1 388 14 692 38 869 12 83 26
195 32 250 5 55 21 159 34 230 14 72 32 182 42 245 38 262 73 411 159 690 18
58 37 123 42 145 6 22 22 74 36 115 14 41 33 109 42 150 10 41 30 99 46 129
23 42 26 58 18 73 -9 16 -4 33 20 83 17 34 31 65 31 69 0 3 16 26 35 52 19 25
35 50 35 54 0 9 106 235 176 375 19 39 34 73 34 77 0 4 13 29 28 55 16 27 32
60 35 75 4 15 21 50 37 78 17 28 30 56 30 61 0 6 15 29 33 52 19 23 44 59 56
80 13 20 26 37 31 37 5 0 12 10 15 21 4 12 21 41 39 65 17 23 45 64 61 90 33
53 37 59 110 164 28 40 57 82 65 95 15 24 23 34 120 153 114 139 110 132 97
180 -6 23 -15 42 -19 42 -4 0 -27 -26 -50 -57z"/>
<path d="M4975 11630 c-7 -12 2 -30 16 -30 12 0 12 27 0 35 -5 3 -12 1 -16 -5z"/>
<path d="M4850 11616 c-60 -18 -167 -69 -209 -100 -19 -14 -40 -26 -45 -26 -6
0 -22 -12 -35 -25 -13 -14 -27 -25 -33 -25 -5 0 -6 -4 -3 -10 11 -17 31 -11
63 19 33 32 109 48 183 38 33 -4 39 -2 39 13 0 12 12 22 33 29 33 11 67 55 67
85 0 19 -1 19 -60 2z"/>
<path d="M7018 11603 c-23 -15 -30 -15 -52 -4 -71 38 -354 -41 -590 -165 -175
-92 -249 -126 -306 -141 -36 -9 -140 -16 -300 -20 -239 -5 -246 -6 -277 -30
-32 -23 -33 -23 -33 -4 0 12 -2 21 -5 21 -21 0 -208 -66 -261 -92 -12 -5 -37
-13 -55 -17 -25 -5 -35 -13 -37 -29 -2 -12 -16 -29 -31 -36 -39 -21 -221 -221
-221 -244 0 -5 -7 -15 -16 -23 -20 -16 -45 -72 -77 -176 -59 -187 -61 -313 -6
-478 34 -106 41 -115 77 -115 27 0 29 25 6 90 -9 25 -19 77 -24 115 -9 84 7
262 26 290 8 11 14 36 14 55 0 25 10 49 30 76 16 21 30 44 30 50 0 6 16 33 35
60 19 27 35 54 35 60 0 6 16 32 35 57 19 25 35 50 35 55 0 25 207 172 241 172
32 0 21 -15 -28 -40 -90 -44 -165 -125 -200 -214 -9 -22 -29 -55 -43 -72 -28
-33 -70 -152 -70 -198 0 -15 -7 -38 -16 -51 -40 -61 -25 -258 26 -358 11 -21
20 -45 20 -55 0 -9 9 -32 20 -49 15 -26 27 -33 50 -33 34 0 34 -1 19 37 -6 15
-15 54 -19 87 -6 39 -17 67 -32 83 -18 20 -20 26 -9 33 12 7 12 20 -2 84 -22
100 -22 118 7 201 14 39 28 91 31 116 4 32 16 58 39 85 37 44 66 95 66 118 0
13 55 61 134 116 12 8 33 27 48 43 36 36 48 34 48 -7 0 -31 -4 -35 -32 -41
-18 -4 -41 -15 -52 -24 -20 -17 -106 -147 -106 -159 0 -4 -16 -48 -37 -97 -35
-87 -36 -94 -35 -209 1 -122 8 -157 59 -281 55 -134 82 -181 118 -198 l35 -17
-6 43 c-8 57 -61 223 -86 269 -17 33 -18 50 -13 135 11 181 26 253 62 305 18
26 33 53 33 60 0 29 66 108 166 200 102 93 143 120 96 60 -13 -15 -32 -42 -43
-59 -12 -18 -25 -33 -29 -33 -14 0 -101 -139 -132 -213 -27 -62 -31 -85 -33
-168 -1 -52 -5 -101 -9 -107 -9 -14 18 -129 42 -182 8 -19 24 -45 35 -57 13
-15 18 -30 13 -47 -3 -14 -2 -27 3 -31 9 -5 26 -36 94 -170 32 -61 130 -191
135 -177 2 6 -10 36 -27 66 -17 29 -31 60 -31 68 0 8 -14 35 -30 61 -20 29
-34 68 -41 107 -5 35 -22 90 -36 124 -24 57 -43 152 -44 221 -2 85 21 209 50
272 16 38 33 78 36 90 13 47 178 213 303 305 56 41 78 47 39 11 -12 -12 -41
-40 -65 -62 -23 -23 -47 -41 -52 -41 -6 0 -10 -9 -10 -20 0 -11 -16 -37 -35
-57 -36 -38 -41 -47 -87 -138 -83 -166 -82 -395 3 -570 16 -33 32 -73 35 -90
3 -16 19 -47 35 -67 16 -20 29 -41 29 -47 0 -5 6 -16 14 -24 8 -7 30 -39 50
-69 19 -31 42 -63 51 -71 8 -9 20 -26 25 -39 6 -13 24 -41 40 -63 16 -22 29
-46 30 -53 1 -35 110 -219 110 -185 0 37 -113 303 -146 343 -6 8 -19 37 -28
64 -9 26 -30 75 -46 108 -17 33 -30 65 -30 71 0 6 -15 50 -34 97 -38 95 -65
232 -60 300 11 125 28 219 50 263 14 26 29 47 34 47 6 0 10 9 10 19 0 11 15
39 33 63 37 47 237 248 248 248 17 0 -7 -42 -37 -65 -19 -14 -34 -31 -34 -38
0 -7 -16 -25 -35 -40 -19 -15 -35 -34 -35 -42 0 -7 -4 -15 -8 -17 -17 -7 -54
-70 -66 -115 -8 -27 -26 -75 -40 -108 -21 -50 -26 -75 -26 -155 0 -52 3 -105
6 -118 6 -21 10 -22 53 -15 120 20 223 -10 349 -101 50 -36 95 -66 99 -66 4 0
24 -14 43 -30 19 -16 43 -30 53 -30 9 0 17 -3 17 -7 0 -15 88 -63 114 -63 15
0 57 -8 92 -17 63 -17 65 -17 84 3 l21 20 -108 33 c-60 18 -123 40 -142 49
-47 20 -128 79 -135 97 -3 8 -12 15 -20 15 -8 0 -27 16 -42 35 -14 19 -31 35
-37 35 -6 0 -22 11 -36 24 -42 39 -164 96 -220 103 -28 3 -51 9 -51 13 0 4 20
10 45 13 50 7 137 -11 195 -41 74 -39 156 -85 171 -98 8 -8 21 -14 28 -14 6 0
21 -16 32 -35 12 -19 27 -35 34 -35 8 0 51 -18 97 -41 74 -36 89 -40 141 -37
39 3 61 0 69 -9 30 -37 298 22 348 77 9 9 50 30 60 30 5 0 10 -11 10 -25 0
-14 4 -25 8 -25 14 0 40 32 57 70 l16 35 -4 -67 -3 -68 30 0 c23 0 27 -3 18
-12 -19 -19 -14 -26 27 -33 24 -4 48 -2 62 5 18 10 24 9 31 -4 7 -12 25 -16
81 -16 69 1 74 2 117 40 l45 40 18 -25 c14 -18 28 -25 52 -25 43 0 89 -31 185
-123 97 -94 280 -302 280 -320 0 -5 16 -28 35 -51 19 -24 35 -48 35 -53 0 -5
9 -18 20 -28 26 -24 120 -197 120 -221 0 -23 59 -214 106 -342 19 -51 34 -100
34 -110 0 -29 59 -203 95 -277 69 -143 96 -208 105 -249 5 -22 16 -70 24 -106
20 -83 19 -100 0 -168 -17 -57 -35 -79 -118 -145 -45 -36 -52 -71 -28 -128 17
-38 26 -47 60 -57 30 -9 43 -20 53 -45 7 -17 27 -54 44 -82 18 -27 51 -90 74
-140 23 -49 53 -111 67 -138 13 -26 24 -52 24 -59 0 -6 16 -44 35 -85 19 -41
35 -77 35 -80 0 -4 29 -66 65 -139 36 -73 65 -140 65 -149 0 -8 4 -23 10 -33
20 -35 50 -124 50 -148 0 -39 -80 -185 -107 -195 -13 -5 -23 -12 -23 -16 0
-29 -138 -72 -235 -73 -85 -2 -116 -16 -45 -21 102 -8 210 8 280 39 93 42 128
88 155 206 14 61 14 71 -5 155 -11 50 -33 118 -50 153 -16 34 -30 68 -30 76 0
11 -160 349 -210 443 -5 9 -30 56 -56 105 -26 49 -57 107 -68 128 -25 49 -143
176 -163 176 -24 0 8 44 87 122 64 62 69 70 75 123 4 31 5 79 1 108 -4 29 -10
86 -15 127 -6 57 -22 107 -64 208 -32 72 -57 137 -57 143 0 5 -12 36 -27 67
-15 31 -34 84 -44 117 -87 306 -141 477 -171 533 -15 29 -28 58 -28 65 0 6
-15 35 -32 62 -18 28 -39 62 -48 77 -24 44 -92 140 -112 160 -10 10 -18 21
-18 26 0 4 -28 37 -63 74 -34 36 -79 86 -100 110 -21 24 -64 70 -96 103 -54
56 -101 116 -101 128 0 3 16 23 36 44 46 48 124 150 124 162 0 5 15 38 33 72
30 61 32 69 32 174 0 84 -6 129 -23 190 -12 43 -27 84 -32 89 -6 6 -10 17 -10
26 0 8 -7 26 -16 38 -13 18 -19 21 -30 11 -18 -15 -32 -3 -16 13 7 7 12 17 12
24 0 22 -186 203 -226 220 -22 9 -46 22 -54 29 -24 20 -235 100 -341 129 -54
15 -116 25 -145 24 -27 -1 -67 1 -89 5 -30 6 -47 3 -67 -10z m141 -77 c36 -8
112 -22 168 -30 66 -11 122 -26 160 -45 32 -16 80 -38 106 -50 54 -24 54 -24
118 -80 25 -23 49 -41 51 -41 7 0 88 -81 88 -87 0 -3 15 -23 33 -44 77 -92 89
-111 94 -148 6 -44 -6 -57 -37 -41 -14 8 -20 21 -20 47 0 28 -7 42 -35 67 -19
18 -35 37 -35 42 0 13 -77 94 -89 94 -5 0 -31 18 -56 40 -26 22 -63 49 -83 60
-21 11 -44 24 -52 29 -25 15 -114 50 -161 62 -24 6 -111 18 -193 27 -128 13
-169 14 -299 2 -159 -13 -180 -19 -273 -74 -33 -18 -78 -37 -101 -41 -61 -10
-107 -37 -192 -111 -70 -62 -155 -113 -168 -100 -10 10 48 97 73 108 13 6 24
14 24 18 0 6 115 96 174 136 17 12 37 29 45 38 7 9 28 16 46 16 18 0 64 16
101 35 43 21 96 38 139 45 39 6 108 16 155 24 115 18 141 18 219 2z m111 -166
c72 -15 116 -28 165 -50 22 -10 56 -24 75 -32 19 -8 69 -37 110 -64 41 -27 92
-58 114 -69 28 -14 42 -30 51 -56 6 -20 21 -50 33 -67 12 -16 38 -71 57 -121
34 -89 35 -93 29 -191 -6 -87 -11 -105 -33 -135 -29 -39 -48 -47 -29 -12 8 14
12 70 13 162 0 132 -1 143 -27 195 -46 94 -151 203 -220 231 -16 6 -28 14 -28
18 0 15 -191 98 -270 117 -68 16 -255 18 -392 3 -83 -9 -116 -18 -171 -45 -37
-19 -72 -34 -77 -34 -6 0 -27 -11 -48 -24 -43 -28 -160 -71 -170 -62 -10 10
68 84 133 126 62 40 173 81 267 99 29 5 64 14 78 20 31 14 264 8 340 -9z m94
-173 c32 -15 67 -27 78 -27 30 0 58 -19 68 -46 6 -16 17 -24 33 -24 32 0 143
-102 199 -183 l43 -62 -2 -140 c-1 -154 -15 -219 -52 -244 -22 -14 -22 -13
-15 15 3 16 13 40 22 54 10 16 17 56 20 112 4 74 2 89 -12 94 -12 5 -16 20
-16 60 0 49 -2 54 -26 60 -18 5 -23 11 -19 23 4 9 7 19 8 22 1 3 -28 32 -65
64 -49 41 -74 56 -88 52 -15 -4 -24 2 -34 22 -10 19 -40 39 -97 66 -66 31 -95
39 -153 41 -39 2 -98 6 -131 10 -33 3 -100 1 -149 -5 -72 -9 -95 -15 -115 -35
-14 -13 -44 -28 -66 -32 -22 -4 -69 -21 -105 -39 -100 -50 -170 -57 -100 -10
16 11 30 23 30 27 0 4 35 24 78 44 231 109 253 114 472 110 123 -2 140 -5 194
-29z m13 -173 c152 -77 185 -101 243 -184 31 -43 60 -132 60 -184 0 -55 -18
-34 -29 32 -4 29 -20 70 -37 94 -16 24 -32 51 -36 60 -4 9 -20 25 -35 34 -15
10 -37 26 -48 35 -35 31 -227 107 -285 114 -30 3 -105 2 -166 -3 -87 -8 -126
-16 -184 -41 -41 -17 -90 -31 -108 -31 l-34 0 31 26 c34 28 129 77 206 105 37
13 79 18 160 19 l109 0 153 -76z m-987 11 c30 -8 66 -24 80 -35 14 -11 41 -29
61 -39 19 -11 58 -40 87 -66 43 -39 54 -44 71 -36 31 17 43 14 31 -8 -13 -26
-13 -31 4 -31 7 0 19 -6 25 -14 11 -12 17 -13 45 -1 36 15 46 12 46 -17 0 -15
5 -18 21 -13 58 19 188 36 312 42 l138 6 82 -88 c83 -90 105 -126 106 -180 1
-33 -47 -118 -61 -109 -4 3 -8 31 -8 63 0 32 -3 60 -6 63 -3 3 -17 3 -32 -1
-26 -7 -27 -8 -24 -87 2 -56 0 -75 -7 -64 -6 8 -11 24 -11 36 0 11 -9 29 -20
39 -11 10 -20 28 -20 41 0 56 -97 91 -161 59 -19 -10 -41 -23 -49 -29 -29 -24
-126 -48 -211 -53 -95 -6 -177 11 -239 51 -19 12 -49 28 -65 34 -17 7 -35 22
-40 34 -13 28 -218 167 -275 186 -26 8 -108 17 -192 21 -87 4 -152 11 -159 18
-18 18 26 35 103 41 39 3 72 10 79 18 9 11 16 10 36 -6 17 -13 41 -20 72 -20
25 0 64 -6 86 -13 55 -17 156 -70 192 -101 17 -14 34 -26 38 -26 4 0 19 -8 33
-19 52 -37 163 -91 228 -111 112 -34 207 -23 331 41 32 16 65 29 73 29 20 0
120 -65 143 -93 l17 -22 19 25 c20 25 20 25 -1 48 -12 12 -42 35 -67 50 -38
22 -57 27 -111 26 -36 0 -90 -8 -122 -17 -37 -11 -92 -17 -163 -17 -98 0 -112
3 -172 30 -35 17 -68 30 -73 30 -5 0 -44 34 -85 75 -98 96 -129 118 -187 133
-78 19 -239 34 -303 28 -72 -7 -106 7 -60 24 17 6 66 16 110 20 44 5 94 14
110 19 33 11 64 8 145 -14z m898 -111 c48 -19 91 -34 97 -34 14 0 141 -134
169 -179 29 -46 41 -112 26 -140 -17 -32 -30 -25 -30 17 -1 64 -54 162 -90
162 -9 0 -34 18 -55 41 -79 81 -188 127 -255 109 -22 -6 -77 -12 -123 -15 -46
-2 -97 -7 -113 -11 -28 -7 -28 -6 14 34 39 39 46 42 100 43 31 1 71 5 87 9 40
11 71 4 173 -36z m-1016 -192 c20 -12 40 -22 45 -22 6 0 43 -33 84 -72 112
-110 232 -167 395 -188 73 -9 79 -9 101 12 l24 22 6 -22 c4 -16 11 -21 22 -17
9 4 43 15 76 27 33 11 68 24 77 29 31 17 20 -5 -24 -48 -52 -49 -102 -63 -225
-62 -138 1 -254 20 -299 51 -22 14 -55 35 -74 46 -20 12 -47 30 -59 42 -13 11
-29 20 -34 20 -5 0 -25 16 -44 35 -22 23 -43 35 -61 35 -19 0 -32 8 -44 30
-10 18 -28 31 -45 35 -15 3 -48 10 -73 16 -79 20 -133 28 -200 29 -61 1 -64 2
-45 16 17 13 48 15 191 11 154 -3 174 -6 206 -25z m-386 -113 c8 -14 -18 -31
-30 -19 -9 9 0 30 14 30 5 0 12 -5 16 -11z m1769 -108 c-3 -12 -13 -21 -21
-21 -17 0 -19 31 -2 48 17 17 32 -1 23 -27z m-87 -55 c4 -18 -23 -45 -45 -46
-18 0 -16 36 3 55 19 19 38 15 42 -9z"/>
<path d="M9740 11602 c0 -44 27 -126 51 -155 23 -28 108 -87 125 -87 15 0 -2
35 -36 76 -22 27 -46 62 -54 79 -8 17 -26 40 -40 53 -14 12 -26 26 -26 32 0 5
-4 10 -10 10 -5 0 -10 -4 -10 -8z"/>
<path d="M6217 11524 c-14 -15 -6 -34 14 -34 14 0 19 5 17 17 -3 18 -20 27
-31 17z"/>
<path d="M5455 11502 c-3 -3 -131 -7 -283 -8 -348 -3 -327 -3 -318 -11 4 -5
60 -11 124 -15 386 -23 494 -27 741 -27 278 -1 349 6 420 44 24 12 23 13 -25
18 -67 8 -651 7 -659 -1z"/>
<path d="M4432 11398 c5 -32 28 -35 28 -4 0 17 -5 26 -16 26 -10 0 -14 -7 -12
-22z"/>
<path d="M4275 11351 c-24 -7 -161 -97 -189 -123 -11 -10 -24 -18 -29 -18 -4
0 -25 -12 -45 -27 -20 -15 -39 -28 -41 -30 -2 -2 4 -12 14 -23 18 -19 18 -19
59 21 l41 42 83 -7 c82 -6 83 -6 80 16 -2 17 -11 24 -33 28 -53 9 -35 33 63
83 88 44 91 47 55 46 -21 -1 -47 -4 -58 -8z"/>
<path d="M9917 11337 c-7 -20 60 -149 131 -252 34 -49 62 -94 62 -101 0 -6 7
-17 15 -24 8 -7 32 -43 52 -81 20 -38 41 -69 45 -69 4 0 8 -7 8 -15 0 -8 15
-39 34 -68 46 -72 71 -114 99 -167 13 -25 41 -76 62 -115 55 -101 137 -268
178 -360 19 -44 51 -117 71 -162 20 -45 36 -86 36 -92 0 -5 16 -43 35 -84 19
-41 35 -82 35 -90 0 -9 16 -53 35 -98 19 -46 35 -91 35 -100 0 -9 15 -59 33
-110 58 -161 107 -316 107 -335 1 -33 69 -220 93 -254 14 -20 13 -25 -1 -50
-15 -26 -14 -33 11 -117 15 -50 27 -102 27 -117 0 -15 5 -59 12 -97 10 -62 13
-70 32 -67 34 5 33 74 -4 200 -23 77 -29 112 -22 125 7 12 5 24 -6 41 -12 19
-13 25 -2 32 15 9 7 49 -46 231 -19 63 -34 127 -34 142 0 15 -13 68 -28 119
-16 51 -34 111 -40 133 -17 63 -78 237 -106 300 -15 31 -26 64 -26 72 0 15
-51 136 -106 249 -19 39 -34 75 -34 79 0 4 -29 67 -65 140 -36 73 -65 136 -65
140 0 4 -16 33 -35 65 -19 32 -35 63 -35 70 0 6 -16 35 -35 64 -19 29 -35 58
-35 65 0 6 -16 34 -35 61 -19 27 -35 53 -35 56 0 4 -16 31 -35 60 -19 29 -35
57 -35 62 0 5 -16 33 -35 61 -19 28 -35 53 -35 55 0 3 -29 48 -65 101 -36 52
-65 98 -65 101 0 3 -31 45 -68 92 -38 48 -71 95 -75 105 -8 20 -33 23 -40 4z"/>
<path d="M4462 11228 c-56 -5 -115 -14 -130 -20 l-27 -11 30 -7 c49 -12 629
-11 708 1 93 14 112 24 74 38 -34 13 -503 12 -655 -1z"/>
<path d="M4790 11086 c-122 -9 -165 -16 -204 -34 -57 -26 -65 -27 -102 -7 -31
16 -44 14 -111 -16 -23 -11 -47 -19 -53 -19 -16 0 -113 -73 -156 -117 -12 -13
-26 -23 -32 -23 -6 0 -17 -8 -24 -18 -7 -10 -26 -27 -43 -38 -16 -10 -38 -26
-47 -35 -10 -8 -51 -37 -90 -64 -40 -26 -85 -56 -100 -66 -15 -11 -51 -25 -80
-33 -29 -8 -89 -26 -133 -40 -44 -14 -95 -29 -115 -32 -45 -7 -149 -43 -175
-61 -11 -7 -27 -13 -36 -13 -30 0 -137 -81 -184 -140 -26 -33 -56 -62 -66 -65
-31 -10 -114 -191 -149 -324 -5 -19 -6 -65 -3 -104 6 -66 5 -69 -14 -63 -27 9
-97 -74 -88 -104 5 -14 -5 -33 -34 -67 -22 -27 -49 -69 -60 -94 -12 -26 -36
-58 -55 -72 -29 -23 -34 -33 -40 -85 -6 -50 -11 -61 -31 -70 -31 -14 -32 -40
-3 -44 18 -2 25 -13 34 -54 12 -55 42 -142 55 -159 18 -24 20 -93 5 -155 -18
-75 -21 -194 -6 -271 27 -135 58 -399 65 -539 14 -303 25 -390 61 -484 19 -48
34 -93 34 -100 0 -6 16 -51 35 -100 l35 -89 0 -254 c0 -271 -4 -237 64 -553
21 -95 35 -128 46 -110 18 29 10 122 -25 277 -49 218 -47 374 6 508 19 50 41
156 33 164 -2 3 -17 -8 -32 -22 l-28 -27 -37 108 c-45 131 -46 169 -9 231 33
55 67 130 61 135 -2 3 -30 -13 -61 -35 -54 -37 -78 -47 -78 -33 0 3 31 42 70
87 38 45 68 83 66 85 -2 1 -30 -9 -62 -23 -31 -14 -62 -24 -66 -23 -5 2 18 36
51 76 34 39 61 74 61 77 0 2 -10 1 -22 -4 -13 -4 -45 -12 -72 -16 -58 -8 -59
-10 36 92 63 67 73 88 33 73 -42 -16 -103 -49 -110 -60 -3 -5 -11 -10 -16 -10
-12 0 -2 14 105 144 48 59 76 100 70 106 -6 6 -25 -6 -49 -30 -22 -21 -46 -39
-53 -40 -7 0 -27 -7 -43 -16 -17 -8 -33 -14 -35 -12 -3 4 69 93 125 155 10 12
22 32 26 43 7 23 8 23 -65 -19 -35 -20 -90 -40 -90 -33 0 5 34 39 75 77 124
113 157 186 52 115 -25 -16 -50 -30 -56 -30 -6 0 -29 -10 -51 -21 -23 -12 -43
-19 -45 -17 -3 3 22 28 56 57 34 28 71 64 83 79 11 15 24 29 28 30 5 2 8 11 8
19 0 11 -5 13 -17 8 -120 -50 -123 -49 -66 22 46 58 44 67 -18 59 l-50 -7 24
37 25 36 -28 57 c-49 98 -93 271 -69 271 5 0 9 -5 9 -10 0 -6 19 -43 42 -82
35 -57 44 -67 48 -50 4 16 9 19 20 12 8 -5 19 -10 23 -10 17 0 -6 117 -34 175
-32 67 -69 177 -69 206 0 32 18 21 30 -18 6 -21 14 -44 16 -52 4 -11 8 -11 22
3 10 9 21 16 25 16 3 0 17 11 31 25 l26 25 -25 103 c-27 110 -30 137 -16 137
10 0 51 -92 51 -116 0 -20 41 -84 53 -84 15 0 77 64 77 78 0 8 -13 53 -29 101
-43 131 -57 305 -34 429 11 58 60 168 71 158 2 -3 -4 -38 -14 -78 -35 -140
-15 -309 55 -467 17 -36 33 -76 36 -88 l6 -23 37 19 c79 41 77 36 49 132 -63
215 -58 418 14 577 18 40 37 72 41 72 10 0 10 -14 -1 -42 -20 -52 -41 -170
-41 -235 0 -121 47 -295 106 -396 10 -18 12 -17 50 4 21 12 41 24 43 26 2 1
-4 23 -13 48 -79 206 -75 478 8 610 18 28 38 62 45 77 8 15 26 39 41 53 l27
26 -5 -28 c-3 -15 -20 -55 -38 -88 -29 -54 -33 -72 -41 -180 -6 -79 -5 -153 3
-220 11 -103 18 -129 57 -202 21 -41 24 -43 69 -43 l48 0 0 43 c0 23 -5 62
-11 87 -6 25 -16 96 -24 157 -14 122 -4 217 29 282 32 61 38 48 31 -65 -8
-129 9 -248 49 -338 14 -32 26 -66 26 -76 0 -13 13 -21 51 -30 27 -7 52 -10
55 -7 3 3 -2 34 -11 69 -27 104 -45 228 -45 313 0 144 38 308 80 347 20 19 35
24 25 9 -7 -12 -22 -85 -40 -192 -18 -113 -8 -199 42 -354 21 -63 68 -152 99
-186 13 -14 24 -28 24 -31 0 -10 115 -161 136 -179 25 -22 54 -31 54 -18 0 10
-15 43 -77 164 -33 66 -41 81 -56 115 -45 100 -57 131 -57 152 0 13 -4 39 -10
58 -5 19 -14 83 -20 143 -10 102 -10 111 14 185 13 42 38 104 55 137 17 33 31
65 31 73 0 24 32 76 76 122 23 25 54 60 69 78 52 62 46 31 -10 -49 -64 -93
-112 -193 -144 -298 -24 -80 -23 -129 4 -281 14 -79 21 -101 55 -174 11 -25
20 -49 20 -53 0 -4 9 -19 19 -32 13 -17 20 -20 26 -12 5 9 11 7 20 -6 9 -12
10 -22 4 -30 -7 -8 -1 -22 19 -45 15 -18 51 -69 80 -113 57 -90 81 -119 89
-111 9 8 -6 53 -22 70 -16 16 -76 120 -100 171 -7 17 -23 39 -34 49 -25 23
-27 36 -5 36 9 0 14 3 12 8 -40 77 -47 106 -68 280 -17 136 9 306 60 392 16
28 30 55 30 59 0 26 46 103 89 153 28 31 51 58 51 60 0 10 80 88 89 88 6 0 -3
-19 -20 -42 -97 -138 -135 -196 -145 -223 -7 -16 -24 -59 -38 -95 -26 -63 -27
-70 -24 -230 4 -161 5 -168 42 -275 21 -60 42 -114 46 -119 5 -5 20 -6 34 -2
30 7 30 16 -9 127 -33 94 -38 144 -26 248 15 118 37 184 117 347 35 73 64 141
64 152 0 20 18 32 49 32 9 0 35 18 56 40 21 22 42 40 46 40 12 0 -16 -49 -39
-71 -39 -35 -91 -144 -138 -284 -45 -136 -46 -143 -42 -240 4 -80 11 -120 38
-200 42 -124 55 -145 87 -145 24 0 25 2 18 38 -3 20 -15 66 -26 102 -12 38
-22 110 -26 175 -5 101 -4 113 16 145 11 19 21 44 21 56 0 12 15 50 34 85 19
36 44 91 55 124 11 32 30 68 41 80 11 12 20 25 20 30 0 4 17 25 38 45 73 74
92 95 92 107 0 6 16 21 35 33 19 12 35 26 35 31 0 5 15 18 33 29 l32 20 -50
-2 c-27 0 -120 -6 -205 -12z m-350 -146 c0 -9 -59 -54 -64 -49 -2 2 -7 14 -10
26 -9 28 28 57 56 42 10 -5 18 -14 18 -19z m-1752 -1604 c-2 -12 -7 -21 -12
-21 -15 0 -29 31 -22 50 5 14 9 15 22 5 8 -8 14 -23 12 -34z m72 -641 c0 -8
-7 -15 -15 -15 -16 0 -20 12 -8 23 11 12 23 8 23 -8z"/>
<path d="M3920 10950 c-14 -4 -68 -9 -120 -9 -102 -2 -126 -10 -160 -53 -29
-38 -6 -37 51 2 44 30 44 30 192 30 81 0 147 4 147 8 0 11 -46 32 -68 31 -9
-1 -28 -5 -42 -9z"/>
<path d="M3555 10820 c-3 -5 3 -10 14 -10 12 0 21 5 21 10 0 6 -6 10 -14 10
-8 0 -18 -4 -21 -10z"/>
<path d="M3495 10681 c-36 -4 -45 -8 -32 -13 28 -12 104 -9 177 6 l65 14 -80
-1 c-44 0 -102 -3 -130 -6z"/>
<path d="M9838 10683 c-13 -3 -18 -18 -20 -65 l-3 -61 -60 -39 c-33 -21 -67
-40 -75 -43 -8 -4 -28 -13 -45 -22 -16 -8 -60 -31 -97 -49 -37 -19 -70 -38
-73 -43 -3 -5 -27 -17 -53 -27 -26 -10 -54 -23 -63 -30 -15 -14 -155 -74 -170
-74 -4 0 -20 11 -35 25 -25 24 -64 26 -86 6 -6 -5 28 -82 69 -156 9 -16 25
-48 36 -70 11 -22 26 -47 33 -56 8 -8 14 -22 14 -30 0 -8 16 -38 35 -68 19
-29 35 -57 35 -63 0 -14 48 -94 65 -108 11 -9 27 -9 67 0 105 23 131 35 141
64 14 42 3 56 -46 56 -50 0 -147 26 -147 40 0 5 -14 25 -31 45 -17 19 -39 57
-49 83 l-19 49 32 31 c50 47 242 162 252 150 1 -2 12 -22 24 -45 29 -58 27
-107 -5 -146 -20 -24 -24 -37 -20 -61 9 -45 21 -51 54 -27 16 11 49 30 73 41
52 23 151 78 162 89 4 4 3 20 -4 34 -11 25 -15 26 -73 21 l-61 -5 -31 53 c-49
83 -49 84 1 118 24 16 50 30 57 30 7 0 23 7 35 15 11 8 51 30 88 50 80 41 83
40 126 -53 33 -69 40 -142 19 -183 -7 -13 -26 -39 -44 -58 -21 -22 -27 -35
-18 -38 7 -3 19 -11 27 -20 20 -20 44 -10 109 43 30 24 59 44 64 44 5 0 15 6
22 14 9 12 6 24 -14 58 -35 59 -134 250 -198 380 -52 106 -59 112 -100 101z"/>
<path d="M1683 10522 c-65 -62 -98 -122 -112 -202 -23 -124 24 -223 129 -272
59 -28 190 -31 235 -5 17 9 33 17 37 17 4 0 47 30 95 67 134 102 217 115 294
46 35 -32 39 -40 39 -85 0 -58 -15 -90 -65 -138 -35 -34 -38 -35 -113 -34 -42
0 -89 4 -104 7 -32 8 -58 -13 -57 -46 0 -27 75 -78 139 -96 78 -21 147 19 222
129 42 62 57 118 58 205 0 117 -33 176 -130 232 -62 36 -168 38 -223 5 -21
-12 -42 -22 -47 -22 -10 0 -143 -83 -175 -109 -62 -51 -177 -47 -230 9 -25 26
-27 34 -23 81 5 45 11 57 44 87 38 33 40 34 99 26 112 -14 118 -13 126 24 6
28 3 35 -20 51 -31 23 -138 71 -156 71 -6 0 -34 -22 -62 -48z"/>
<path d="M8144 10475 c-4 -8 -3 -22 0 -31 5 -14 16 -15 64 -9 68 8 126 31 117
45 -3 5 -44 10 -91 10 -66 0 -86 -3 -90 -15z"/>
<path d="M5851 10458 c-16 -5 -21 -13 -17 -24 3 -9 6 -19 6 -23 0 -5 30 -16
68 -26 102 -27 217 -73 237 -95 10 -11 22 -20 27 -20 6 0 28 -16 51 -35 22
-19 45 -35 50 -35 5 0 32 -15 60 -33 29 -18 68 -41 88 -51 49 -26 74 -45 66
-52 -17 -17 -206 54 -284 107 -23 16 -44 29 -48 29 -3 0 -31 16 -61 35 -30 19
-61 35 -69 35 -8 0 -15 3 -15 8 0 9 -72 46 -118 61 -32 10 -32 10 -26 -17 4
-15 15 -42 26 -59 15 -26 26 -33 50 -33 29 0 122 -54 148 -85 7 -8 16 -15 21
-15 5 0 30 -15 56 -34 27 -18 99 -51 160 -72 62 -22 113 -42 113 -46 0 -16
-55 -20 -109 -9 -100 21 -115 26 -160 51 -69 39 -73 42 -138 107 -56 57 -105
85 -120 69 -9 -8 25 -80 64 -134 18 -26 33 -51 33 -56 0 -5 16 -31 35 -57 19
-27 35 -53 35 -57 0 -5 9 -17 20 -27 11 -10 34 -45 51 -78 16 -33 36 -66 44
-74 8 -8 15 -21 15 -29 0 -8 16 -37 35 -64 19 -27 35 -53 35 -57 1 -15 39 -58
46 -51 3 4 -5 40 -19 80 -47 135 -76 235 -82 279 l-6 44 20 -25 c33 -40 34
-41 73 -120 20 -41 39 -96 42 -123 10 -81 84 -296 115 -328 3 -4 25 -10 49
-14 l43 -7 -7 29 c-4 15 -19 48 -33 73 -57 97 -92 192 -103 280 -8 73 -7 92 5
116 17 33 9 58 -25 82 -10 7 -18 21 -18 32 0 14 5 17 23 13 12 -3 30 -13 40
-21 9 -8 19 -13 21 -11 2 2 16 24 31 49 16 24 34 51 42 58 7 7 13 18 13 23 0
11 36 64 65 93 19 20 19 20 -35 34 -114 28 -216 64 -262 93 -27 16 -51 29 -55
29 -7 0 -71 47 -133 96 -70 57 -232 110 -279 92z"/>
<path d="M8350 10452 c0 -11 39 -47 44 -41 2 2 7 14 10 27 7 19 4 22 -23 22
-17 0 -31 -4 -31 -8z"/>
<path d="M8461 10321 c-7 -5 -11 -13 -7 -19 10 -16 55 -20 73 -7 15 11 15 13
-5 24 -25 13 -42 14 -61 2z"/>
<path d="M8530 10208 c-16 -6 -81 -8 -182 -3 l-158 7 0 -33 0 -32 133 6 c75 3
153 12 182 21 27 8 50 14 50 13 1 -1 27 -41 58 -89 31 -47 57 -89 57 -92 0 -4
10 -20 22 -36 13 -19 18 -33 12 -39 -5 -5 -40 -5 -79 0 -38 4 -98 8 -132 8
-64 1 -163 -17 -163 -30 0 -3 14 -12 30 -19 23 -10 74 -11 203 -6 l172 6 33
-43 c17 -24 32 -47 32 -51 0 -3 12 -25 27 -49 70 -111 313 -628 313 -667 0 -6
8 -27 19 -48 42 -83 163 -480 202 -662 6 -30 20 -82 30 -114 10 -33 19 -73 19
-90 0 -17 14 -96 30 -176 44 -212 80 -545 80 -747 0 -75 -4 -85 -24 -58 -9 13
-35 15 -151 13 -139 -3 -139 -3 -111 -21 38 -25 193 -45 246 -31 37 10 39 10
49 -15 15 -39 24 -136 17 -176 l-7 -35 -63 0 c-84 0 -125 -9 -136 -30 -8 -16
-2 -17 86 -12 75 4 98 2 105 -9 10 -16 12 -151 3 -198 l-6 -31 -123 0 c-93 0
-125 -3 -134 -14 -10 -12 0 -15 58 -21 38 -4 93 -5 122 -3 50 3 53 2 62 -27 7
-20 6 -47 -1 -85 -7 -31 -12 -84 -12 -118 0 -33 -4 -71 -9 -84 -5 -13 -16 -47
-25 -77 -15 -48 -15 -56 -1 -71 20 -22 19 -24 -11 -86 -23 -47 -25 -57 -14
-88 13 -41 3 -90 -28 -133 -22 -31 -57 -143 -67 -216 -6 -47 -21 -70 -61 -93
-18 -11 -18 -13 -2 -30 14 -16 15 -27 8 -59 -4 -22 -16 -82 -25 -134 -11 -63
-27 -113 -46 -147 -23 -40 -31 -70 -36 -126 -4 -47 -12 -82 -24 -100 -11 -14
-19 -31 -19 -37 0 -7 -9 -29 -20 -50 -17 -34 -17 -41 -5 -51 12 -10 16 -9 21
6 20 59 57 154 74 189 10 22 24 61 31 88 6 26 16 50 21 53 14 9 38 75 53 144
13 63 42 151 71 217 17 38 94 391 94 431 0 16 16 92 35 168 28 110 35 159 35
235 0 58 6 113 15 138 8 22 22 123 31 223 18 204 14 431 -12 643 -8 66 -19
192 -24 280 -7 103 -21 215 -42 315 -17 85 -34 178 -38 205 -4 28 -22 102 -39
166 -17 64 -31 125 -31 138 0 21 -34 134 -91 306 -17 50 -34 106 -38 125 -4
19 -22 68 -39 109 -18 40 -32 78 -32 83 0 5 -13 39 -30 75 -16 35 -33 76 -36
91 -4 15 -19 52 -35 82 -15 30 -82 165 -149 300 -66 135 -135 270 -153 300
-35 61 -111 165 -127 175 -5 3 -10 13 -10 21 0 29 -81 124 -105 123 -5 0 -21
-5 -35 -11z"/>
<path d="M5356 9933 c9 -21 22 -54 29 -73 15 -42 96 -203 105 -210 4 -3 12
-14 19 -25 11 -18 12 -17 6 10 -9 41 -96 248 -124 293 -7 13 -22 27 -33 33
-18 10 -18 9 -2 -28z"/>
<path d="M4890 9953 c1 -26 47 -121 77 -158 4 -5 14 -22 22 -37 21 -42 34 -34
15 10 -9 20 -19 46 -22 57 -5 19 -81 135 -88 135 -2 0 -4 -3 -4 -7z"/>
<path d="M5115 9940 c-8 -13 23 -61 44 -68 9 -3 11 5 9 23 -3 32 -42 63 -53
45z"/>
<path d="M4680 9918 c0 -13 43 -112 60 -139 12 -19 35 -56 52 -84 38 -62 48
-45 15 27 -13 29 -30 69 -37 88 -22 56 -59 110 -75 110 -8 0 -15 -1 -15 -2z"/>
<path d="M4436 9882 c-3 -5 2 -23 12 -41 20 -37 132 -164 139 -157 3 2 -16 43
-41 91 -25 47 -46 93 -46 101 0 15 -55 20 -64 6z"/>
<path d="M5660 9815 c1 -16 23 -75 51 -130 l50 -100 -5 51 c-5 54 -41 143 -75
184 l-21 25 0 -30z"/>
<path d="M3825 9710 c-8 -14 72 -153 112 -197 32 -34 33 -34 57 -16 l24 18
-19 37 c-10 20 -23 39 -29 43 -5 3 -10 12 -10 20 0 8 -14 34 -31 59 -26 39
-35 46 -64 46 -19 0 -37 -5 -40 -10z"/>
<path d="M3655 9652 c-11 -4 -28 -12 -38 -18 -18 -11 -18 -12 1 -50 11 -21 32
-54 46 -73 14 -19 26 -40 26 -45 1 -6 11 -24 24 -39 23 -28 24 -29 55 -13 17
9 31 19 31 22 0 3 -12 31 -26 62 -14 31 -37 81 -50 110 -24 52 -31 56 -69 44z"/>
<path d="M8500 9657 c0 -3 6 -18 12 -33 l13 -27 135 7 c74 4 153 10 175 14
l40 8 -34 12 c-35 12 -341 30 -341 19z"/>
<path d="M3432 9557 l-21 -22 45 -70 c56 -87 82 -115 107 -115 21 0 21 1 -8
80 -21 57 -77 149 -91 150 -6 0 -20 -10 -32 -23z"/>
<path d="M5530 9512 c0 -20 22 -61 36 -66 21 -8 37 19 24 43 -6 12 -15 21 -20
21 -4 0 -15 3 -24 6 -9 3 -16 1 -16 -4z"/>
<path d="M5790 9485 c0 -36 14 -60 29 -51 16 11 13 31 -9 57 l-19 24 -1 -30z"/>
<path d="M3248 9474 c-21 -14 -38 -27 -38 -30 0 -11 34 -64 42 -64 4 0 15 -15
24 -32 19 -38 37 -53 78 -67 l28 -11 -7 38 c-4 20 -12 48 -19 62 -7 14 -24 47
-37 73 -13 27 -26 50 -29 52 -3 1 -22 -8 -42 -21z"/>
<path d="M6060 9488 c0 -13 30 -77 39 -82 5 -3 11 3 14 13 3 13 -5 29 -24 47
-16 15 -29 25 -29 22z"/>
<path d="M4021 9419 c-22 -9 -22 -11 -9 -32 14 -20 68 -38 68 -22 0 7 -30 65
-33 64 -1 0 -13 -5 -26 -10z"/>
<path d="M8620 9380 c0 -3 16 -17 34 -32 30 -24 44 -28 98 -28 68 0 226 17
241 27 4 3 0 11 -10 18 -13 9 -71 14 -191 16 -94 2 -172 2 -172 -1z"/>
<path d="M3043 9363 c-39 -20 -40 -28 -10 -58 12 -13 45 -46 72 -74 50 -52 86
-64 93 -30 4 23 -90 179 -108 178 -8 0 -30 -8 -47 -16z"/>
<path d="M3793 9367 c-28 -12 -29 -27 -5 -56 13 -17 22 -20 38 -14 20 8 20 9
5 44 -14 33 -18 36 -38 26z"/>
<path d="M2862 9270 l-33 -21 23 -29 c13 -16 34 -45 48 -65 68 -98 68 -98 125
-64 l36 21 -26 34 c-14 18 -29 41 -33 51 -4 10 -18 35 -32 55 -29 44 -58 49
-108 18z"/>
<path d="M6517 9274 c-3 -4 2 -23 13 -43 73 -139 74 -145 36 -235 -9 -21 -16
-48 -16 -60 0 -13 -28 -60 -62 -107 -91 -123 -133 -200 -142 -262 l-5 -38 40
49 c21 28 39 54 39 59 0 4 11 20 25 35 14 15 33 40 42 56 10 16 43 67 74 113
70 107 78 125 85 208 8 80 -13 158 -55 204 -23 25 -59 35 -74 21z"/>
<path d="M2484 9109 c-47 -61 -132 -328 -174 -547 -11 -57 -26 -118 -34 -135
-7 -18 -23 -75 -35 -127 -12 -52 -29 -117 -38 -143 -9 -30 -15 -82 -14 -135 0
-87 -17 -208 -46 -312 -15 -55 -36 -406 -35 -615 0 -155 14 -445 21 -445 26 0
31 32 31 201 0 145 -3 180 -15 193 -19 19 -19 60 -1 89 9 13 19 74 26 152 6
72 15 173 20 225 5 52 7 122 4 155 -5 47 -1 70 14 105 11 25 23 66 27 90 4 26
19 61 36 83 29 36 29 37 8 37 -20 0 -21 4 -15 43 3 23 11 96 16 162 5 66 19
158 29 205 11 47 27 119 36 160 33 162 77 316 101 355 35 58 70 246 38 204z"/>
<path d="M8710 9113 c0 -5 10 -19 23 -31 21 -20 34 -22 128 -22 99 0 221 14
243 27 22 14 -57 25 -221 30 -107 3 -173 2 -173 -4z"/>
<path d="M3045 9016 c-19 -14 -19 -16 -3 -32 11 -11 24 -15 42 -10 21 5 24 10
17 29 -10 27 -30 32 -56 13z"/>
<path d="M2892 8924 c-27 -19 -28 -44 -3 -75 l18 -23 18 30 c10 16 25 35 34
42 13 11 13 14 -5 27 -25 19 -35 18 -62 -1z"/>
<path d="M8801 8838 c0 -7 4 -22 8 -33 7 -19 16 -19 167 -16 117 2 168 7 194
19 l35 15 -85 13 c-117 17 -320 18 -319 2z"/>
<path d="M1475 8834 c-11 -3 -30 -7 -41 -9 -12 -3 -32 -22 -44 -42 -27 -46
-33 -155 -10 -197 18 -35 86 -66 144 -66 37 0 51 6 80 33 42 38 56 72 56 133
0 56 -21 108 -52 127 -25 16 -101 28 -133 21z"/>
<path d="M2959 8811 c-23 -19 -23 -21 -7 -37 17 -17 18 -17 33 1 16 22 20 55
6 55 -5 0 -19 -9 -32 -19z"/>
<path d="M10068 8789 c-46 -24 -68 -56 -79 -116 -10 -52 11 -114 55 -158 22
-22 33 -25 98 -25 l73 0 37 46 c49 60 56 98 29 159 -47 106 -126 141 -213 94z"/>
<path d="M2423 8614 c-7 -3 -13 -17 -13 -30 0 -25 1 -25 63 -18 34 4 64 8 65
10 2 1 -7 9 -20 18 -27 18 -77 28 -95 20z"/>
<path d="M8947 8563 l-48 -4 22 -31 22 -30 141 4 c131 5 196 17 196 39 0 12
-249 28 -333 22z"/>
<path d="M6313 8490 c-23 -9 -42 -55 -28 -68 4 -4 20 9 36 28 41 48 39 59 -8
40z"/>
<path d="M8139 8480 c-87 -14 -279 -66 -366 -99 -43 -17 -82 -31 -86 -31 -5 0
-36 -16 -68 -35 -33 -19 -66 -35 -72 -35 -16 0 -167 -100 -167 -110 0 -4 -11
-20 -25 -36 -24 -27 -31 -44 -20 -44 9 0 170 91 186 106 8 8 23 14 31 14 9 0
21 7 29 16 7 8 30 24 50 35 34 17 61 19 242 19 l203 0 78 -51 c65 -43 77 -55
72 -73 -3 -11 -6 -29 -6 -38 0 -22 -48 -69 -92 -91 -18 -9 -73 -31 -123 -49
l-90 -33 133 -5 c80 -3 131 -9 130 -15 -4 -18 -68 -55 -95 -55 -15 0 -34 -6
-42 -14 -14 -11 -124 -36 -275 -61 -46 -8 -199 -74 -171 -75 41 0 156 20 276
49 68 16 145 32 172 35 45 5 47 4 47 -19 0 -40 -65 -185 -82 -185 -7 0 -44 16
-82 35 -46 24 -82 35 -110 35 l-41 0 25 -20 c14 -11 41 -27 60 -37 19 -10 56
-31 82 -47 l48 -29 -25 -33 c-14 -18 -25 -35 -25 -37 0 -8 48 -17 62 -12 24 9
115 204 128 273 12 63 55 130 90 139 47 12 99 56 110 93 15 54 13 54 -42 10
-48 -38 -53 -40 -65 -24 -18 25 -17 34 12 76 14 20 25 41 25 45 0 4 4 14 9 21
6 11 21 7 69 -17 73 -37 127 -40 187 -11 53 26 72 60 80 145 5 60 3 75 -15
103 -11 19 -37 40 -58 48 -20 9 -84 39 -142 69 -115 58 -163 68 -251 55z m51
-68 c0 -5 16 -25 35 -45 19 -20 35 -40 35 -44 0 -4 11 -21 25 -38 14 -16 39
-52 56 -80 16 -27 37 -60 45 -72 15 -20 15 -23 1 -23 -18 0 -127 109 -127 127
0 7 -29 49 -65 93 -36 44 -65 83 -65 85 0 3 14 5 30 5 17 0 30 -4 30 -8z m113
-3 c11 -7 32 -22 45 -34 13 -12 43 -28 66 -36 70 -22 112 -46 124 -73 10 -23
9 -26 -6 -26 -9 1 -41 11 -70 24 -77 33 -224 156 -186 156 3 0 15 -5 27 -11z
m-222 -41 c27 -17 49 -36 49 -42 0 -13 -330 -10 -343 4 -5 4 13 13 40 19 26 6
75 19 108 30 82 26 90 26 146 -11z m404 -182 c30 -14 55 -29 55 -34 0 -15 -39
-45 -52 -39 -18 6 -82 97 -69 97 6 0 35 -11 66 -24z"/>
<path d="M2406 8351 c-16 -3 -31 -12 -34 -20 -4 -11 15 -13 99 -9 108 4 150
15 113 29 -23 9 -137 9 -178 0z"/>
<path d="M6241 8318 c-18 -47 -30 -88 -26 -88 7 0 37 61 46 92 11 39 -4 35
-20 -4z"/>
<path d="M8942 8265 c-7 -14 -12 -28 -12 -30 0 -7 266 -6 353 1 55 5 74 10 70
20 -9 25 -68 34 -233 34 l-167 0 -11 -25z"/>
<path d="M11228 8185 c-13 -24 -30 -182 -24 -233 20 -191 28 -242 42 -285 13
-40 14 -53 4 -78 -12 -28 -11 -32 19 -63 36 -37 39 -52 10 -61 l-21 -7 21 -22
c27 -28 27 -65 0 -123 -17 -37 -20 -60 -17 -122 3 -42 1 -254 -4 -471 -9 -399
-9 -402 -68 -880 -5 -36 -20 -130 -35 -210 -14 -80 -30 -185 -35 -235 -5 -49
-20 -135 -34 -190 -13 -55 -27 -122 -31 -150 -4 -27 -19 -90 -35 -140 -15 -49
-45 -146 -65 -215 -20 -69 -52 -172 -70 -230 -18 -58 -39 -132 -45 -165 -7
-33 -26 -83 -41 -112 -21 -37 -27 -60 -23 -81 4 -21 -5 -52 -37 -118 -23 -49
-49 -95 -56 -103 -14 -14 -95 -178 -108 -220 -4 -13 -20 -46 -36 -73 -16 -27
-29 -53 -29 -58 0 -9 -50 -115 -92 -195 -12 -22 -27 -51 -33 -65 -43 -91 -101
-200 -107 -200 -6 0 -88 -118 -118 -172 -8 -14 -40 -64 -70 -110 -30 -46 -59
-91 -65 -100 -19 -31 -158 -223 -169 -233 -6 -5 -31 -37 -56 -70 -24 -33 -62
-80 -82 -104 -28 -32 -36 -50 -33 -67 17 -83 14 -78 35 -59 11 10 39 45 62 77
24 33 58 78 76 100 17 22 32 43 32 46 0 4 16 24 35 44 19 20 35 40 35 44 0 4
16 26 35 50 19 23 35 45 35 49 0 3 16 26 36 50 33 39 39 42 65 35 33 -10 36
-4 13 21 -15 17 -15 21 2 46 32 48 46 85 34 97 -5 5 -10 16 -10 23 0 16 94
158 110 168 6 4 16 17 21 28 5 12 30 47 55 77 63 77 125 173 163 253 30 63 32
73 22 110 -5 23 -9 43 -7 44 1 2 22 13 47 26 36 19 46 31 57 68 17 56 43 119
57 133 25 29 85 148 85 172 0 8 15 47 34 86 19 40 53 132 76 203 22 72 54 164
69 205 42 112 82 231 91 270 4 19 22 69 39 112 17 42 31 92 31 112 0 20 5 56
12 81 9 35 17 45 33 45 20 0 21 6 22 103 1 95 13 190 49 363 8 39 19 104 24
145 43 314 62 489 70 644 6 99 14 225 20 280 12 134 12 518 0 685 -6 74 -14
209 -18 300 -7 138 -12 173 -31 215 -19 43 -22 60 -16 121 5 50 2 88 -9 131
-9 34 -16 71 -16 84 -1 31 -25 86 -32 74z"/>
<path d="M4610 8103 c-63 -11 -131 -36 -166 -61 -62 -43 -202 -192 -228 -242
-49 -94 -55 -107 -84 -190 -48 -138 -55 -180 -43 -257 6 -38 10 -88 9 -113 -1
-25 6 -74 15 -110 9 -36 25 -107 37 -159 12 -52 32 -120 45 -151 13 -31 27
-81 31 -111 4 -30 25 -91 47 -137 31 -64 53 -95 101 -138 33 -30 66 -70 72
-87 9 -27 18 -34 57 -42 39 -8 44 -13 36 -27 -10 -18 -6 -22 31 -31 16 -4 29
-17 36 -35 8 -21 20 -31 43 -35 24 -5 31 -12 31 -30 0 -20 7 -25 48 -34 l47
-10 -32 -8 c-18 -4 -33 -11 -33 -15 0 -4 27 -18 60 -30 45 -17 58 -26 50 -35
-7 -9 1 -17 31 -30 22 -10 49 -31 60 -46 27 -39 77 -52 199 -51 87 0 116 4
158 22 29 12 52 26 52 31 0 5 6 9 13 9 19 0 51 38 67 79 19 47 18 129 0 166
-23 46 -35 27 -35 -56 0 -66 -3 -81 -27 -115 -42 -60 -77 -76 -179 -82 -82 -4
-90 -3 -131 22 -77 48 -106 73 -155 130 -26 30 -58 63 -70 71 -13 9 -23 21
-23 27 0 6 -17 27 -38 47 -63 61 -229 244 -263 291 -36 50 -109 184 -109 200
0 6 -11 35 -24 63 -13 29 -29 70 -36 92 -12 39 -55 141 -111 262 -55 120 -72
257 -48 375 13 59 109 267 133 288 9 7 16 18 16 25 0 12 76 87 140 137 19 15
69 40 110 55 61 23 91 28 160 28 86 0 135 -14 230 -65 19 -10 61 -32 93 -49
32 -17 70 -40 84 -51 14 -11 31 -20 38 -20 7 0 32 -11 56 -25 53 -31 64 -37
109 -60 19 -10 50 -27 68 -37 31 -19 32 -19 32 -1 0 19 -18 37 -62 63 -14 8
-64 41 -111 73 -47 31 -89 57 -95 57 -5 0 -20 8 -33 19 -13 10 -67 41 -119 68
-130 67 -278 96 -390 76z"/>
<path d="M2326 8053 c4 -16 8 -30 10 -31 1 -2 56 -1 122 3 l120 7 -10 24 c-11
23 -15 24 -130 24 l-118 0 6 -27z"/>
<path d="M8838 8003 c-27 -7 -22 -19 16 -42 40 -25 107 -27 186 -7 40 11 91
13 190 10 l135 -5 18 25 18 26 -273 -1 c-150 -1 -281 -3 -290 -6z"/>
<path d="M2274 7899 c-10 -17 13 -36 27 -22 12 12 4 33 -11 33 -5 0 -12 -5
-16 -11z"/>
<path d="M4741 7884 c-46 -15 -106 -39 -133 -55 -27 -16 -53 -29 -57 -29 -5 0
-39 -16 -77 -35 -37 -19 -74 -35 -82 -35 -15 0 -53 -36 -76 -73 -18 -29 -29
-127 -21 -178 5 -27 19 -52 41 -74 19 -19 34 -37 34 -41 0 -3 13 -22 30 -40
43 -49 46 -73 16 -135 -56 -120 -56 -204 0 -318 34 -69 113 -161 139 -161 7 0
15 -4 17 -8 2 -4 25 -20 51 -36 51 -29 94 -30 130 -3 15 11 12 17 -31 65 -26
28 -52 52 -57 52 -6 0 -18 12 -27 28 -10 15 -27 39 -40 55 -20 25 -23 43 -30
195 -9 197 -11 207 -27 167 -34 -83 -38 -324 -7 -397 9 -21 14 -38 12 -38 -7
0 -72 94 -91 130 -27 52 -23 171 9 247 37 90 35 132 -13 201 -21 31 -49 68
-62 81 -33 35 -38 123 -11 178 16 31 34 46 85 71 35 18 72 32 80 32 9 0 51 16
94 34 102 45 196 61 260 44 47 -12 47 -12 18 -19 -16 -4 -55 -7 -84 -8 -31 0
-51 -5 -45 -9 12 -11 110 -40 149 -44 25 -3 21 -6 -27 -17 -63 -15 -73 -27
-30 -36 15 -3 45 -11 67 -18 l40 -12 -45 -3 c-104 -6 -115 -23 -26 -42 46 -9
56 -16 66 -41 12 -27 16 -29 71 -29 l59 0 0 43 c-1 97 -59 274 -97 292 -11 6
-28 17 -37 24 -31 26 -143 23 -235 -5z"/>
<path d="M2270 7810 c0 -24 33 -30 171 -30 135 0 147 1 143 18 -5 15 -21 17
-160 18 -84 0 -154 -3 -154 -6z"/>
<path d="M9010 7730 c-5 -3 -7 -15 -4 -27 5 -20 15 -21 152 -28 123 -6 157 -4
204 10 64 18 80 32 46 39 -33 7 -388 12 -398 6z"/>
<path d="M2355 7532 c-100 -2 -133 -7 -122 -18 15 -15 93 -22 189 -16 59 4
121 4 139 -1 35 -9 112 10 88 23 -18 9 -166 16 -294 12z"/>
<path d="M5022 7484 c-14 -10 -22 -25 -22 -45 0 -31 -30 -69 -55 -69 -24 0
-17 -19 10 -26 35 -9 31 -22 -7 -26 -25 -2 -34 -8 -36 -25 -3 -24 -50 -43
-104 -43 -39 0 -44 -19 -9 -31 45 -16 38 -29 -14 -29 -56 0 -70 -19 -91 -124
-16 -77 -12 -145 7 -115 5 7 9 24 9 36 0 13 12 44 27 70 23 42 37 53 112 91
47 23 91 42 98 42 6 0 31 16 55 36 67 56 95 163 64 239 -17 41 -15 40 -44 19z"/>
<path d="M5835 7433 c13 -85 17 -100 29 -116 12 -15 13 -11 8 30 -5 46 -27
113 -37 113 -2 0 -3 -12 0 -27z"/>
<path d="M6235 7428 c7 -34 21 -55 30 -47 2 3 0 22 -6 42 -13 46 -33 50 -24 5z"/>
<path d="M9120 7448 c1 -39 13 -41 180 -35 88 4 165 9 170 12 5 3 7 12 3 20
-4 12 -35 15 -179 15 -133 0 -174 -3 -174 -12z"/>
<path d="M6073 7355 c-7 -7 -15 -25 -19 -39 -5 -22 -3 -26 14 -26 16 0 21 8
24 40 4 43 0 47 -19 25z"/>
<path d="M10789 7363 c-10 -2 -20 -19 -23 -38 -4 -21 -17 -42 -34 -54 -25 -18
-50 -19 -367 -22 l-340 -4 -20 37 c-16 31 -26 38 -49 38 l-29 0 7 -177 c4 -97
8 -178 9 -179 1 -1 15 0 31 3 22 4 33 16 47 48 14 32 28 46 52 55 17 6 138 15
267 20 129 5 264 12 300 14 78 7 105 -5 139 -57 24 -36 42 -44 75 -31 13 5 15
14 10 40 -3 18 -9 95 -13 171 -6 128 -7 138 -26 140 -11 0 -27 -1 -36 -4z"/>
<path d="M1107 7330 c-69 -19 -147 -57 -147 -72 0 -4 -6 -8 -14 -8 -14 0 -67
-59 -97 -110 -9 -14 -29 -61 -45 -105 -25 -68 -29 -94 -28 -175 0 -108 26
-216 75 -310 l18 -34 119 3 c128 3 164 -7 177 -50 5 -14 16 -19 41 -19 l34 0
0 176 0 177 -32 -7 c-17 -3 -32 -7 -33 -9 -1 -1 -8 -20 -16 -42 -8 -23 -25
-45 -39 -52 -34 -17 -204 -17 -218 0 -15 19 -42 121 -42 161 0 61 39 145 92
202 123 129 350 166 513 83 79 -41 119 -81 155 -153 24 -48 30 -72 30 -125 0
-86 -12 -124 -53 -175 -35 -41 -45 -46 -158 -70 -26 -6 -26 -7 -16 -51 l10
-45 79 -2 c160 -4 139 -14 169 77 25 74 28 93 28 246 l1 165 -40 82 c-36 76
-78 127 -148 184 -88 71 -271 97 -415 58z"/>
<path d="M6240 7344 c0 -17 23 -94 29 -94 3 0 13 13 22 29 16 28 16 29 -12 50
-29 21 -39 25 -39 15z"/>
<path d="M2581 7269 c-48 -9 -66 -19 -35 -19 11 0 62 -13 114 -30 52 -16 95
-28 96 -27 0 1 8 16 16 34 l16 32 -37 5 c-87 12 -129 13 -170 5z"/>
<path d="M2200 7261 c0 -5 53 -11 118 -13 131 -4 171 0 150 13 -18 12 -268 11
-268 0z"/>
<path d="M5872 7200 c-1 -46 1 -52 10 -33 8 16 8 32 0 55 -9 32 -10 31 -10
-22z"/>
<path d="M6066 7218 c-28 -38 -44 -88 -27 -88 19 0 79 60 90 90 9 28 8 30 -14
30 -15 0 -33 -12 -49 -32z"/>
<path d="M6274 7196 c-3 -7 -4 -39 -2 -71 l3 -58 23 47 c16 30 22 56 18 72 -7
26 -33 33 -42 10z"/>
<path d="M5085 7193 c-26 -6 -31 -12 -39 -45 -5 -24 -3 -28 16 -29 14 -1 2 -8
-30 -18 -29 -10 -53 -20 -53 -24 1 -4 1 -11 1 -17 0 -6 33 -11 78 -11 l77 -2
-67 -15 c-38 -9 -68 -19 -68 -22 0 -3 28 -12 63 -20 59 -12 61 -14 35 -23 -35
-14 -36 -27 -2 -27 29 0 94 -58 94 -84 0 -9 5 -16 11 -16 6 0 35 -21 65 -47
49 -43 55 -51 50 -77 -13 -62 -55 -78 -148 -57 -21 5 -38 7 -38 5 0 -6 110
-54 124 -54 6 0 35 11 64 25 l52 24 0 60 0 60 -71 72 c-77 79 -74 66 -49 181
15 69 9 96 -29 137 -24 26 -36 31 -73 30 -23 -1 -52 -3 -63 -6z"/>
<path d="M6157 7160 c-22 -32 -23 -98 -1 -107 32 -12 51 49 32 97 l-14 34 -17
-24z"/>
<path d="M4883 7057 c-17 -6 -34 -18 -37 -26 -3 -9 -11 -23 -17 -32 -8 -11 -9
-28 -3 -55 l8 -39 4 32 c2 22 17 45 52 77 26 24 45 47 42 50 -6 7 -6 7 -49 -7z"/>
<path d="M6300 7057 c-17 -13 -53 -87 -47 -94 7 -6 65 67 70 88 6 22 -2 24
-23 6z"/>
<path d="M5988 7053 c7 -3 16 -2 19 1 4 3 -2 6 -13 5 -11 0 -14 -3 -6 -6z"/>
<path d="M5867 7014 c-31 -33 -34 -39 -25 -65 10 -30 28 -30 28 -1 0 9 23 36
51 60 l51 42 -35 0 c-27 0 -43 -8 -70 -36z"/>
<path d="M2313 6991 c-28 -4 -55 -9 -58 -13 -3 -3 40 -11 97 -18 57 -7 122
-16 144 -20 36 -6 46 -3 77 20 20 15 34 30 30 34 -8 7 -219 6 -290 -3z"/>
<path d="M8287 6981 c-35 -13 -75 -106 -92 -212 -7 -45 12 -174 31 -210 18
-35 67 -54 140 -54 57 0 65 4 167 69 l107 68 44 -15 c47 -16 63 -13 45 9 -25
30 58 37 139 12 l52 -17 -32 39 -33 40 -91 0 c-50 0 -106 -5 -125 -12 -34 -12
-114 -63 -157 -102 -25 -22 -86 -46 -120 -46 -53 0 -88 43 -112 138 -12 48 4
147 40 241 12 29 20 55 18 56 -2 1 -11 0 -21 -4z"/>
<path d="M6020 6959 c-14 -11 -61 -37 -106 -58 -69 -33 -82 -43 -87 -67 -3
-16 -4 -31 -2 -33 8 -7 147 54 171 76 13 12 33 27 44 33 10 5 28 23 40 40 l21
30 -28 0 c-15 0 -39 -10 -53 -21z"/>
<path d="M6250 6921 c-48 -23 -110 -64 -110 -74 0 -4 10 -5 23 -3 12 3 39 8
60 11 20 3 37 7 37 9 0 2 7 20 15 40 8 20 14 36 13 35 -2 0 -19 -8 -38 -18z"/>
<path d="M6325 6873 c-11 -18 -23 -33 -26 -33 -4 0 -11 -10 -14 -21 -4 -12
-37 -51 -74 -86 -49 -49 -60 -63 -41 -58 46 14 101 46 107 63 4 9 16 31 28 47
33 46 47 81 43 101 -3 16 -7 13 -23 -13z"/>
<path d="M5985 6786 c-33 -7 -73 -19 -88 -26 -26 -13 -30 -12 -38 3 -11 19
-34 22 -44 6 -7 -10 -34 -115 -35 -132 0 -17 77 8 122 40 26 18 51 33 56 33
19 0 165 79 147 80 -11 0 -29 2 -40 4 -11 3 -47 -1 -80 -8z"/>
<path d="M6372 6753 c-19 -28 -62 -108 -62 -117 0 -2 8 -2 18 1 28 7 98 143
73 143 -5 0 -18 -12 -29 -27z"/>
<path d="M2425 6729 c-131 -9 -205 -19 -205 -29 0 -7 334 -24 435 -21 33 0 73
6 89 13 29 12 29 12 -35 30 -66 19 -100 19 -284 7z"/>
<path d="M6459 6682 c-36 -39 -98 -129 -109 -158 -9 -22 -8 -24 9 -15 31 17
83 83 109 139 13 29 22 55 20 58 -3 2 -16 -9 -29 -24z"/>
<path d="M3944 6613 c-29 -49 -55 -99 -59 -112 -7 -22 -3 -20 31 12 24 22 48
59 62 95 39 98 22 101 -34 5z"/>
<path d="M5990 6633 c-8 -3 -48 -21 -87 -39 -49 -24 -80 -33 -97 -28 -13 3
-33 1 -44 -5 -26 -14 -52 -66 -52 -103 0 -16 -9 -46 -19 -66 -10 -20 -29 -70
-41 -109 -12 -40 -28 -77 -36 -84 -8 -6 -14 -15 -14 -20 0 -5 -16 -31 -35 -58
-19 -26 -35 -53 -35 -58 0 -6 -8 -21 -18 -34 -19 -24 -93 -168 -151 -293 -34
-74 -77 -225 -83 -290 -3 -38 -2 -40 32 -47 58 -12 102 -86 65 -107 -13 -7
-15 -20 -9 -74 6 -65 7 -66 44 -77 29 -8 41 -19 51 -44 7 -17 14 -35 17 -39 2
-5 -3 -8 -12 -8 -9 0 -16 -5 -16 -12 0 -17 51 -102 67 -111 7 -4 13 -14 13
-21 0 -7 10 -24 23 -37 13 -13 65 -80 117 -149 51 -69 101 -131 112 -138 10
-7 18 -19 18 -26 0 -8 15 -25 34 -39 18 -15 74 -67 124 -117 50 -49 93 -90 95
-90 3 0 40 -34 83 -76 83 -79 143 -124 168 -124 8 0 28 -12 43 -26 15 -15 38
-33 51 -41 16 -12 22 -25 22 -54 0 -63 -24 -52 -160 70 -53 47 -126 111 -164
141 -37 30 -80 67 -94 83 -14 15 -29 27 -34 27 -5 0 -24 16 -42 35 -55 58 -61
40 -9 -26 26 -34 55 -66 63 -73 8 -6 23 -24 33 -39 10 -15 29 -32 43 -37 13
-5 24 -14 24 -20 0 -5 45 -44 100 -86 55 -43 100 -81 100 -86 0 -4 6 -8 14 -8
7 0 28 -16 47 -35 19 -19 38 -35 42 -35 12 0 102 -93 110 -113 8 -20 0 -18
-50 19 -40 30 -44 30 -74 -2 -23 -26 -23 -27 -5 -38 11 -6 29 -20 41 -31 11
-11 32 -27 46 -36 23 -16 26 -15 48 2 30 25 34 20 20 -20 -9 -24 -9 -39 0 -57
15 -34 15 -34 -16 -29 -21 4 -37 -2 -61 -24 -33 -28 -33 -29 -18 -59 14 -27
15 -53 6 -209 -10 -175 -42 -462 -59 -535 -10 -42 -7 -48 26 -48 20 0 23 5 23
37 0 65 21 167 42 207 12 22 25 56 29 75 4 20 18 77 32 126 13 50 30 115 36
146 20 96 60 163 121 207 83 58 155 76 287 70 62 -3 119 -10 133 -18 14 -7 32
-16 40 -20 8 -4 20 -17 27 -30 14 -28 160 -84 299 -114 189 -42 371 -42 569
-1 39 8 79 15 90 15 38 0 298 141 350 190 12 11 25 20 30 20 18 0 151 119 196
175 27 33 60 74 74 91 14 18 25 35 25 40 0 4 12 25 26 45 33 48 88 203 104
295 8 43 11 114 8 180 -6 125 -25 192 -95 329 l-45 90 8 95 c15 176 10 308
-16 375 -13 36 -25 98 -30 155 -9 110 -12 119 -56 181 -25 35 -31 48 -22 57 7
7 18 12 25 12 14 0 28 9 69 47 28 26 32 72 8 108 -21 32 -30 25 -38 -29 -6
-40 -12 -48 -53 -71 -25 -15 -82 -35 -127 -44 -60 -12 -94 -25 -126 -49 -39
-29 -51 -32 -112 -32 -80 0 -85 9 -35 63 17 20 43 53 56 74 47 75 51 102 51
335 0 244 2 251 67 308 47 42 56 24 21 -42 -21 -40 -22 -55 -23 -233 l0 -190
-33 -70 c-18 -39 -39 -83 -48 -99 -8 -16 -13 -30 -11 -32 9 -9 122 38 160 66
22 16 45 30 50 30 5 0 29 14 54 30 24 17 48 30 53 30 17 0 40 46 60 116 24 84
25 107 3 211 -12 58 -14 88 -7 104 10 21 12 19 36 -27 14 -27 31 -73 38 -102
15 -66 2 -122 -47 -200 -18 -29 -33 -60 -33 -68 0 -15 3 -14 28 1 85 55 107
111 98 246 -9 128 -18 153 -79 216 -65 67 -116 81 -242 66 -98 -12 -121 -24
-164 -89 -47 -71 -52 -104 -49 -326 2 -152 -1 -211 -11 -233 -12 -28 -13 -29
-21 -9 -14 37 -42 316 -36 356 3 21 20 72 36 113 33 83 37 105 17 105 -19 0
-51 -38 -77 -93 -21 -45 -22 -57 -17 -205 3 -86 10 -203 17 -260 7 -57 10
-105 7 -108 -3 -3 -14 -1 -25 5 -15 8 -22 25 -27 63 -3 29 -18 91 -33 138 -34
109 -34 187 0 300 42 139 47 160 37 160 -5 0 -9 -6 -9 -14 0 -7 -10 -25 -21
-40 -65 -83 -97 -291 -64 -416 30 -114 45 -194 45 -237 0 -50 -32 -140 -60
-171 -11 -12 -25 -33 -30 -47 -5 -14 -16 -25 -24 -25 -7 0 -19 -7 -27 -16 -7
-8 -26 -22 -42 -31 l-30 -15 21 29 c12 15 37 46 57 67 22 23 43 60 52 90 8 28
21 68 29 90 11 33 11 41 -1 59 -8 12 -15 40 -15 62 0 44 -25 237 -36 272 -10
35 -21 19 -29 -42 -4 -38 0 -100 15 -197 12 -78 20 -156 17 -173 -5 -33 -66
-149 -74 -141 -2 2 1 32 7 66 7 41 9 126 5 249 -10 276 -2 326 79 484 36 70
62 127 57 127 -5 0 -23 -17 -40 -37 -17 -21 -37 -45 -44 -54 -82 -95 -116
-273 -117 -594 0 -144 -3 -176 -19 -210 -23 -50 -27 -41 -40 93 -16 148 -14
309 4 389 28 122 67 235 96 278 16 24 29 47 29 53 0 5 9 21 21 36 19 24 67
106 106 183 21 42 8 56 -20 22 -28 -33 -87 -115 -110 -151 -9 -16 -28 -41 -42
-56 -14 -15 -25 -30 -25 -34 0 -4 -14 -31 -32 -59 -42 -69 -86 -271 -94 -429
-5 -98 -1 -144 25 -312 34 -219 38 -314 16 -379 -16 -46 -56 -131 -66 -139 -3
-3 -24 -32 -46 -65 -23 -34 -48 -67 -57 -74 -9 -7 -16 -19 -16 -26 0 -6 -10
-20 -22 -31 -11 -10 -35 -48 -52 -84 -30 -64 -31 -68 -31 -215 0 -218 9 -239
180 -413 71 -73 160 -158 197 -189 59 -48 138 -140 138 -160 0 -4 9 -25 20
-48 23 -47 38 -111 24 -102 -5 3 -20 27 -34 54 -48 99 -109 173 -281 345 -189
188 -252 264 -280 337 -9 25 -24 60 -33 76 l-16 30 0 -37 c0 -21 13 -70 29
-110 41 -103 92 -176 226 -323 70 -76 135 -156 135 -165 0 -5 14 -30 31 -55
19 -28 28 -52 24 -62 -5 -15 -10 -13 -30 12 -13 17 -24 35 -25 41 0 11 -16 29
-134 154 -59 62 -183 203 -198 225 -4 5 -20 26 -36 45 -32 39 -90 156 -99 201
-11 58 60 251 110 296 9 9 17 22 17 29 0 7 16 30 35 51 19 21 35 42 35 46 0 5
7 15 15 24 19 18 94 124 115 161 8 15 18 29 21 32 11 10 48 86 53 110 3 14 10
48 17 77 9 42 8 65 -4 125 -9 40 -21 123 -26 183 -24 250 -31 345 -31 409 0
42 -4 65 -10 61 -5 -3 -10 -16 -10 -29 0 -12 -4 -26 -8 -31 -16 -18 -55 -119
-73 -190 -23 -87 -24 -181 -3 -345 16 -127 16 -129 -6 -197 -12 -37 -28 -78
-36 -90 -8 -12 -14 -28 -14 -34 0 -19 -108 -176 -125 -183 -8 -3 -15 -11 -15
-18 0 -7 -14 -26 -30 -43 -54 -54 -100 -109 -106 -127 -3 -10 -9 -18 -14 -18
-17 0 -112 -155 -137 -225 -17 -47 -27 -100 -30 -162 -5 -88 -4 -94 26 -155
31 -62 74 -127 132 -200 16 -20 29 -40 29 -44 0 -8 35 -47 87 -99 38 -37 113
-176 113 -209 0 -13 5 -37 11 -54 6 -17 9 -37 6 -44 -2 -7 -30 41 -62 107 -62
127 -84 161 -205 320 -42 55 -83 112 -91 126 -8 15 -25 46 -38 70 -25 45 -51
157 -51 217 0 49 28 138 61 194 16 27 29 51 29 54 0 5 217 281 247 314 24 26
90 134 98 160 4 14 11 30 16 36 5 6 18 48 29 95 16 69 20 119 21 279 0 107 4
216 8 243 4 26 7 47 5 47 -2 0 -12 -21 -24 -47 -39 -89 -52 -164 -59 -343 -6
-172 -7 -176 -40 -245 -18 -38 -38 -81 -44 -93 -6 -13 -22 -35 -34 -48 -13
-14 -23 -28 -23 -32 0 -4 -13 -20 -29 -37 -53 -54 -131 -144 -190 -215 -55
-68 -113 -171 -128 -226 -17 -68 -21 -162 -10 -263 10 -87 -3 -89 -29 -3 -13
45 -15 84 -11 189 4 122 6 135 33 182 30 52 108 143 232 271 39 41 72 79 72
84 0 6 11 21 24 35 24 26 66 122 85 197 32 123 52 376 31 389 -6 4 -10 -6 -10
-24 0 -17 -16 -92 -35 -168 -19 -76 -35 -145 -35 -153 0 -8 -14 -50 -32 -94
-31 -73 -45 -91 -199 -251 -140 -146 -172 -185 -205 -251 l-39 -78 0 -166 c0
-106 5 -184 14 -218 16 -65 9 -78 -11 -20 -9 24 -27 74 -42 113 -38 101 -35
162 13 313 47 145 76 185 240 331 34 30 61 60 61 66 0 7 7 15 15 19 8 3 35 37
60 76 43 68 69 141 101 285 16 73 30 243 19 232 -12 -10 -55 -137 -55 -160 0
-40 -75 -244 -110 -299 -39 -60 -105 -138 -117 -138 -5 0 -21 -13 -38 -29 -16
-16 -56 -54 -87 -84 -32 -30 -58 -58 -58 -62 0 -3 -14 -23 -31 -43 -33 -40
-59 -97 -90 -202 -23 -79 -25 -215 -4 -314 8 -38 13 -72 10 -74 -7 -7 -55 107
-71 168 -22 83 -17 149 17 257 32 102 61 162 85 176 8 4 14 13 14 20 0 13 161
187 173 187 11 0 97 88 97 99 0 6 11 17 23 26 13 8 30 27 38 43 8 15 26 46 42
69 18 27 32 68 42 125 16 88 20 258 5 223 -10 -26 -70 -221 -80 -261 -17 -73
-87 -153 -310 -354 -88 -80 -149 -161 -175 -232 -56 -150 -58 -160 -58 -283 1
-87 5 -130 17 -158 9 -20 25 -73 35 -117 11 -44 34 -105 51 -136 18 -30 30
-57 27 -60 -14 -15 -116 176 -138 260 -28 107 -49 215 -49 256 0 103 49 257
96 301 13 12 24 27 24 32 0 5 12 21 28 36 182 179 382 407 382 436 0 6 16 48
35 95 30 73 35 96 34 165 l-1 80 -24 -54 c-14 -30 -31 -78 -39 -107 -32 -123
-76 -184 -282 -391 -106 -107 -193 -199 -193 -203 0 -5 -6 -15 -13 -22 -31
-31 -65 -98 -90 -178 -34 -107 -36 -216 -6 -345 12 -49 24 -108 28 -130 4 -22
22 -72 39 -112 18 -39 32 -74 32 -78 0 -17 -37 34 -65 89 -16 34 -34 61 -39
61 -5 0 -16 -19 -23 -42 -8 -24 -19 -43 -23 -43 -5 0 -31 23 -58 51 -45 47
-50 57 -56 111 -7 62 -23 108 -37 108 -10 0 -39 -54 -39 -73 0 -8 10 -27 23
-43 l22 -29 -32 23 c-32 23 -83 99 -83 126 0 8 -5 26 -11 40 -11 24 -13 24
-39 11 -26 -13 -28 -12 -50 17 -12 17 -26 42 -29 57 -6 20 -14 27 -39 29 -34
3 -42 22 -17 42 19 16 22 140 3 140 -28 -1 -47 -27 -50 -71 l-3 -44 -19 35
c-15 28 -19 54 -18 138 1 113 -5 121 -45 62 -16 -23 -23 -48 -23 -83 l0 -50
-21 19 c-45 40 -52 69 -39 161 6 47 9 88 6 90 -3 3 -12 -2 -21 -11 -9 -9 -20
-16 -24 -16 -5 0 -14 -27 -22 -60 l-13 -60 -23 53 c-12 28 -22 66 -23 84 0 54
-7 62 -46 53 -19 -4 -36 -4 -39 0 -3 5 -8 43 -12 85 l-6 77 -34 -5 c-32 -6
-36 -3 -64 40 -37 60 -37 100 1 172 30 58 72 171 63 171 -10 0 -85 -76 -94
-95 -6 -11 -20 -37 -33 -58 -22 -37 -24 -37 -30 -15 -15 56 -6 114 29 187 48
100 47 107 -16 76 l-50 -26 22 30 c12 17 32 34 43 37 45 14 166 144 178 192 6
20 3 22 -15 16 -12 -4 -48 -19 -79 -35 -32 -15 -58 -24 -58 -19 0 15 42 60 56
60 8 0 17 6 20 14 3 8 13 12 24 9 25 -7 82 13 115 39 30 24 109 127 102 134
-2 3 -27 -6 -53 -20 -27 -14 -64 -32 -81 -41 -18 -8 -33 -21 -33 -28 0 -21
-20 16 -20 38 0 11 18 37 41 58 41 39 69 90 69 126 0 21 48 66 82 77 13 4 42
20 65 35 23 16 45 29 50 29 4 0 28 16 53 36 l45 36 -70 -4 c-39 -2 -85 -11
-104 -21 -19 -9 -35 -16 -37 -14 -2 1 5 21 16 44 18 41 19 42 180 125 20 10
51 31 70 48 l35 29 -35 0 c-19 0 -42 -3 -50 -6z m2630 -163 c13 -8 12 -15 -2
-57 -25 -76 -38 -180 -36 -293 2 -69 -2 -114 -10 -130 -27 -54 -41 -73 -71
-101 -37 -34 -40 -21 -11 61 16 46 19 83 20 221 0 177 12 241 53 287 22 24 34
27 57 12z m108 -44 c1 -2 -2 -27 -8 -56 -7 -35 -7 -82 0 -141 8 -73 7 -96 -6
-136 -9 -26 -21 -54 -26 -61 -6 -7 -18 -27 -27 -44 -32 -63 -36 -43 -33 164 3
173 7 210 23 247 17 40 21 43 46 36 16 -4 29 -8 31 -9z m-1007 -851 c5 -66 13
-138 19 -160 15 -62 12 -162 -7 -224 -17 -56 -76 -153 -126 -207 -15 -16 -27
-34 -27 -41 0 -7 -3 -13 -7 -13 -5 0 -24 -24 -43 -53 -19 -28 -47 -67 -62 -85
-16 -18 -28 -39 -28 -46 0 -7 -8 -20 -17 -29 -10 -9 -26 -32 -35 -52 -10 -19
-25 -51 -34 -70 -18 -38 -34 -46 -34 -17 -1 34 -19 -12 -40 -102 -32 -133 -29
-198 13 -281 68 -140 129 -233 197 -307 45 -48 83 -98 97 -126 7 -15 24 -40
38 -56 14 -16 25 -34 25 -39 0 -6 12 -34 26 -64 14 -30 24 -66 22 -81 -4 -24
-8 -19 -36 39 -18 36 -44 76 -57 89 -14 13 -25 28 -25 34 0 17 -73 125 -150
220 -189 233 -240 320 -240 408 0 84 48 221 106 305 77 111 126 173 135 173 5
0 9 6 9 13 0 7 16 28 35 47 19 19 35 38 35 43 0 5 15 26 33 47 36 42 107 153
107 168 0 5 7 23 15 38 8 16 22 63 31 104 15 64 15 83 5 135 -16 77 -26 271
-16 321 7 38 8 38 17 14 5 -14 14 -79 19 -145z m913 120 c47 -22 101 -131 85
-172 -23 -60 -33 -64 -141 -58 -69 5 -98 3 -98 -5 0 -6 11 -33 25 -61 14 -28
34 -76 44 -108 17 -54 17 -61 1 -129 -9 -39 -22 -77 -27 -84 -17 -21 -83 -149
-100 -193 -10 -27 -17 -88 -20 -190 l-4 -150 22 35 c34 53 49 115 49 199 0 63
5 83 25 116 13 22 41 74 61 115 35 70 38 82 42 182 4 106 3 108 -28 163 -38
66 -35 88 5 48 81 -79 95 -112 95 -225 0 -87 -2 -96 -32 -143 -83 -131 -83
-130 -84 -260 0 -66 -4 -165 -9 -220 -7 -88 -6 -99 7 -88 18 15 40 66 63 147
14 46 16 80 12 155 l-6 96 50 103 c76 160 86 227 43 308 -55 103 -62 119 -58
123 7 8 74 -62 90 -94 24 -47 28 -131 10 -233 -25 -143 -22 -224 12 -291 15
-31 30 -57 35 -59 4 -2 7 -9 7 -16 0 -7 15 -42 33 -77 29 -58 32 -74 35 -171
7 -200 -52 -379 -185 -561 -26 -36 -204 -219 -288 -295 -42 -39 -53 -37 -31 6
43 82 83 245 67 270 -9 15 -31 -27 -54 -103 -39 -133 -84 -245 -96 -245 -5 0
-22 -3 -38 -6 l-30 -6 5 50 c3 32 -2 70 -13 105 l-17 55 50 105 c50 104 73
177 55 177 -9 0 -43 -36 -43 -46 0 -4 -15 -27 -33 -53 -19 -25 -37 -54 -40
-63 -4 -10 -10 -18 -14 -18 -13 0 -113 117 -113 131 0 6 16 45 36 86 19 41 34
83 32 94 -3 17 -7 15 -35 -14 -18 -17 -47 -49 -64 -70 l-32 -37 -34 35 c-33
34 -35 40 -30 83 3 26 9 58 13 72 7 22 3 20 -40 -17 l-48 -42 -34 22 c-18 13
-43 36 -55 51 l-22 28 51 48 c61 57 67 80 20 80 -24 -1 -46 -12 -78 -40 -41
-36 -46 -38 -62 -23 -15 13 -48 103 -48 131 0 6 18 27 40 48 34 32 60 83 60
117 0 9 -52 -19 -99 -52 l-34 -24 5 72 c4 50 12 81 25 99 25 35 93 69 152 78
51 7 81 28 81 56 0 23 -46 24 -116 3 -72 -22 -82 -19 -51 13 15 15 27 32 27
38 0 12 144 164 156 164 10 0 114 110 114 121 0 5 14 29 31 54 17 25 28 49 25
52 -14 14 -76 -28 -107 -72 -18 -26 -35 -41 -38 -34 -2 7 2 49 9 94 l13 82 63
27 c35 16 75 37 89 48 34 26 115 135 115 153 0 28 31 28 83 1 45 -23 52 -24
55 -10 2 9 -1 21 -7 27 -19 19 -12 25 47 32 59 7 146 38 172 62 19 17 54 17
94 -2z m-1300 -1231 c3 -26 6 -61 6 -78 0 -44 36 -142 71 -194 16 -24 29 -46
29 -51 0 -4 16 -22 35 -41 19 -19 35 -39 35 -46 0 -6 6 -14 14 -17 7 -3 45
-45 82 -93 38 -48 77 -96 87 -106 17 -18 41 -68 32 -68 -8 0 -147 145 -221
230 -112 129 -114 131 -141 185 -14 28 -30 53 -35 56 -26 17 -34 269 -9 269 5
0 11 -21 15 -46z m-226 -448 c13 -22 33 -49 43 -60 11 -11 19 -24 19 -28 0 -5
13 -26 29 -46 16 -20 52 -80 78 -132 27 -52 57 -107 67 -122 19 -29 48 -128
38 -128 -4 0 -14 14 -22 30 -59 115 -84 158 -101 176 -10 11 -19 23 -19 27 0
4 -16 29 -35 56 -19 26 -35 51 -35 55 0 4 -27 56 -60 117 -33 60 -60 112 -60
116 0 12 34 -24 58 -61z m-208 -59 c0 -7 10 -23 23 -37 27 -30 79 -130 68
-130 -5 0 -26 20 -47 46 -49 57 -80 134 -54 134 6 0 10 -6 10 -13z m-345 -46
c0 -8 -8 -19 -18 -25 -15 -9 -21 -7 -32 8 -8 10 -12 23 -9 28 9 14 59 5 59
-11z m1415 -282 c9 -35 9 -54 2 -61 -11 -11 -32 47 -32 90 0 40 18 23 30 -29z
m-140 5 c0 -16 -26 -19 -35 -4 -3 6 -4 14 0 20 8 13 35 1 35 -16z m16 -45 c3
-6 -1 -18 -9 -27 -13 -12 -19 -13 -31 -3 -8 7 -12 19 -9 27 6 17 39 19 49 3z"/>
<path d="M8271 5462 l-1 -82 -56 -55 c-30 -30 -59 -55 -64 -55 -5 0 -21 -24
-35 -53 -25 -54 -34 -137 -15 -137 5 0 20 21 32 48 12 26 49 74 81 107 98 100
107 116 110 181 1 41 -3 64 -13 75 -8 9 -20 24 -27 35 -10 16 -12 4 -12 -64z"/>
<path d="M8176 5451 c-25 -38 -46 -72 -46 -76 0 -4 -13 -30 -30 -56 -23 -39
-26 -49 -14 -49 27 0 99 67 127 119 27 48 38 131 18 131 -5 0 -30 -31 -55 -69z"/>
<path d="M8336 5511 c-4 -6 0 -30 8 -53 31 -93 30 -127 -6 -195 -18 -34 -58
-99 -90 -145 -61 -91 -79 -149 -77 -262 0 -51 2 -57 10 -36 9 21 53 115 91
192 25 53 100 183 108 188 12 8 40 91 40 122 0 15 4 29 9 32 15 10 31 -44 31
-103 0 -47 -7 -71 -36 -127 -20 -38 -48 -85 -63 -104 -14 -19 -30 -42 -36 -51
-5 -9 -23 -34 -38 -56 -30 -44 -32 -55 -21 -122 l7 -44 19 24 c10 13 32 51 49
84 17 33 37 67 45 76 8 8 14 23 14 31 0 9 7 22 17 29 9 8 32 48 51 89 38 83
50 165 34 220 -19 63 -37 106 -54 131 l-17 24 0 -22 c-1 -13 -6 -23 -11 -23
-6 0 -14 10 -19 23 -15 37 -59 89 -65 78z"/>
<path d="M8023 5047 c-12 -17 -25 -41 -29 -52 -4 -11 -22 -42 -39 -70 -18 -27
-37 -60 -44 -72 -11 -22 -11 -22 21 -6 18 9 40 19 48 23 8 4 30 29 48 56 26
39 32 59 32 101 0 29 -3 53 -7 53 -5 0 -18 -15 -30 -33z"/>
<path d="M8667 4865 c-4 -24 -2 -91 4 -147 14 -127 14 -122 0 -187 -6 -30 -8
-70 -5 -89 l7 -35 18 24 c30 39 49 108 49 175 0 91 -42 304 -60 304 -4 0 -10
-20 -13 -45z"/>
<path d="M8048 4771 c-42 -39 -57 -59 -61 -88 -4 -20 -5 -38 -3 -40 8 -8 62
20 102 55 46 39 56 72 31 106 -12 17 -17 14 -69 -33z"/>
<path d="M8213 4718 c-13 -13 -23 -27 -23 -31 0 -3 -13 -28 -28 -54 -16 -27
-32 -68 -36 -91 -7 -46 -2 -46 42 1 9 10 29 30 43 45 28 28 39 78 30 125 l-6
29 -22 -24z"/>
<path d="M7885 4683 c-51 -11 -103 -35 -108 -51 -3 -9 -8 -25 -12 -34 -6 -16
-3 -17 26 -12 84 14 159 59 159 95 0 9 -29 10 -65 2z"/>
<path d="M8796 4573 c-8 -51 -6 -232 3 -263 6 -21 10 -13 24 47 20 84 21 133
6 203 -13 59 -24 64 -33 13z"/>
<path d="M8298 4512 c-34 -33 -38 -43 -38 -87 l0 -50 51 52 c48 47 51 53 45
87 -4 20 -10 36 -14 36 -4 -1 -24 -18 -44 -38z"/>
<path d="M8005 4490 c-22 -16 -49 -34 -60 -39 -31 -14 -54 -44 -61 -79 -8 -37
-2 -39 33 -12 14 11 32 20 39 20 24 0 102 59 108 82 17 65 1 72 -59 28z"/>
<path d="M8439 4431 c-37 -57 -59 -121 -41 -121 17 0 60 40 82 75 20 32 21 39
8 69 l-13 33 -36 -56z"/>
<path d="M8125 4385 c-73 -33 -115 -87 -115 -146 0 -17 4 -16 48 11 75 47 122
92 132 128 10 39 5 39 -65 7z"/>
<path d="M8604 4373 c-9 -15 -26 -41 -37 -57 -19 -27 -47 -115 -47 -146 0 -17
18 3 80 93 28 40 40 68 40 92 0 45 -15 52 -36 18z"/>
<path d="M8305 4318 c-11 -6 -41 -31 -67 -56 -38 -37 -48 -53 -48 -79 0 -18 4
-33 9 -33 6 0 37 25 69 55 47 43 61 63 64 90 4 38 3 40 -27 23z"/>
<path d="M8713 4244 c-29 -34 -63 -125 -63 -171 0 -18 6 -15 43 21 48 46 73
112 60 159 l-8 28 -32 -37z"/>
<path d="M8421 4146 c-25 -26 -66 -126 -52 -126 12 0 101 120 101 137 0 21
-24 15 -49 -11z"/>
<path d="M8547 4049 c-31 -24 -51 -65 -62 -128 l-7 -43 26 17 c14 10 26 21 26
25 0 4 16 24 35 44 26 28 35 46 35 72 0 39 -13 43 -53 13z"/>
<path d="M2120 6478 c0 -219 35 -438 70 -438 16 0 20 50 8 94 -10 37 -9 50 2
71 11 20 11 37 2 89 -15 80 -15 123 -1 128 8 3 6 21 -9 58 -28 75 -62 150 -67
150 -3 0 -5 -69 -5 -152z"/>
<path d="M6180 6543 c-36 -13 -85 -31 -110 -39 -74 -24 -74 -38 -1 -30 35 3
74 6 87 6 13 0 45 19 74 45 59 52 47 56 -50 18z"/>
<path d="M6515 6519 c-17 -22 -44 -58 -61 -78 -17 -20 -34 -46 -38 -58 -4 -13
-11 -23 -15 -23 -3 0 -15 -13 -24 -30 -17 -27 -17 -30 -2 -30 26 0 103 73 129
122 27 52 49 114 44 129 -2 5 -17 -9 -33 -32z"/>
<path d="M6609 6448 c-54 -68 -119 -157 -119 -166 0 -4 -14 -25 -30 -46 -17
-22 -28 -41 -26 -44 4 -4 47 17 56 27 3 3 14 11 25 17 11 6 25 21 32 34 6 12
15 25 20 29 29 20 95 172 81 186 -2 3 -20 -14 -39 -37z"/>
<path d="M2305 6452 l-59 -15 38 -14 c35 -12 41 -11 67 8 16 11 29 25 29 30 0
11 3 11 -75 -9z"/>
<path d="M6300 6450 c-14 -11 -31 -20 -39 -20 -7 0 -35 -16 -61 -35 -26 -19
-52 -35 -56 -35 -5 0 -25 -14 -44 -31 l-35 -31 59 6 c39 3 71 13 97 30 21 14
42 26 46 26 11 1 65 90 61 101 -2 4 -14 -1 -28 -11z"/>
<path d="M2635 6455 c-5 -2 -28 -6 -49 -10 -49 -8 -35 -20 43 -36 65 -13 161
-4 161 16 0 8 -3 16 -7 18 -11 6 -136 17 -148 12z"/>
<path d="M6689 6372 c-13 -15 -44 -52 -69 -82 -25 -30 -50 -59 -57 -63 -7 -4
-13 -14 -13 -20 0 -7 -13 -27 -30 -45 -16 -18 -30 -39 -30 -46 0 -7 -9 -21
-20 -31 -31 -28 -16 -30 27 -4 40 25 123 105 123 119 0 5 6 15 13 22 22 22 92
166 85 174 -2 2 -15 -9 -29 -24z"/>
<path d="M8992 6349 l11 -31 181 5 c119 3 196 9 226 19 l45 14 -66 12 c-36 7
-143 12 -237 12 l-171 0 11 -31z"/>
<path d="M2965 6293 c9 -39 14 -41 35 -13 22 29 18 40 -17 40 -22 0 -24 -3
-18 -27z"/>
<path d="M6738 6264 c-24 -25 -45 -51 -47 -57 -2 -7 -19 -29 -37 -50 -19 -20
-34 -44 -34 -52 0 -8 -4 -15 -9 -15 -4 0 -27 -28 -51 -62 -24 -35 -50 -69 -59
-76 -14 -11 -12 -12 13 -6 31 7 44 17 112 77 49 44 114 148 142 230 11 31 19
57 17 57 -2 0 -23 -21 -47 -46z"/>
<path d="M5905 6240 c-33 -17 -80 -48 -105 -70 l-45 -40 38 0 c21 0 54 7 74
15 19 8 44 15 53 15 10 0 20 3 22 8 3 8 68 50 111 71 42 22 33 31 -30 31 -44
0 -73 -8 -118 -30z"/>
<path d="M6315 6248 c-27 -11 -81 -35 -120 -53 -38 -18 -80 -36 -92 -40 -42
-12 -23 -25 36 -25 76 0 136 27 190 85 34 37 49 58 39 54 -2 -1 -25 -10 -53
-21z"/>
<path d="M6818 6167 c-35 -41 -84 -107 -132 -177 -13 -19 -33 -44 -45 -54 -11
-11 -21 -25 -21 -31 0 -7 -7 -18 -15 -25 -23 -19 -18 -32 6 -18 12 7 30 18 40
24 26 15 109 107 109 121 0 6 3 13 8 15 13 6 62 87 62 103 0 9 7 30 16 46 23
46 12 44 -28 -4z"/>
<path d="M2375 6185 c-5 -2 -37 -7 -70 -11 l-60 -7 35 -16 c28 -12 82 -16 269
-19 128 -2 245 -1 260 3 l26 7 -28 24 c-28 24 -31 24 -225 23 -108 0 -201 -2
-207 -4z"/>
<path d="M2993 6182 c-15 -9 -46 -82 -39 -89 3 -3 17 2 31 11 19 12 25 25 25
51 0 38 0 38 -17 27z"/>
<path d="M6360 6115 c-36 -19 -71 -39 -78 -45 -7 -6 -43 -29 -80 -51 l-67 -40
60 4 c75 6 128 31 180 82 39 40 70 85 57 85 -4 -1 -36 -16 -72 -35z"/>
<path d="M9090 6119 c-115 -9 -140 -19 -140 -54 0 -18 130 -26 285 -18 121 5
135 8 135 24 0 13 -12 21 -42 29 -24 6 -59 15 -78 21 -19 5 -37 8 -40 8 -3 -1
-57 -6 -120 -10z"/>
<path d="M5924 6059 c-22 -11 -56 -36 -75 -56 l-34 -36 41 7 c44 6 119 38 168
71 l29 19 -24 7 c-40 11 -62 9 -105 -12z"/>
<path d="M3155 6045 c-33 -14 -63 -25 -68 -25 -4 0 -20 -15 -36 -32 l-29 -33
-19 33 c-10 17 -23 32 -29 32 -17 0 -48 -156 -33 -166 9 -5 114 70 189 134 20
17 42 32 47 32 5 0 20 11 33 25 29 31 21 31 -55 0z"/>
<path d="M6857 6039 c-15 -17 -27 -33 -27 -36 0 -3 -15 -26 -33 -52 -35 -48
-72 -131 -59 -131 16 0 89 87 109 130 52 115 55 140 10 89z"/>
<path d="M6384 5975 c-39 -18 -81 -45 -95 -57 -13 -13 -36 -32 -51 -41 -34
-21 -37 -41 -5 -33 84 21 213 101 238 149 15 26 -7 22 -87 -18z"/>
<path d="M6960 6002 c0 -4 -10 -18 -23 -32 -12 -14 -35 -50 -51 -80 -16 -30
-34 -62 -42 -71 -8 -8 -14 -23 -14 -32 0 -9 -5 -19 -10 -22 -18 -11 -60 -103
-60 -132 0 -21 -18 -47 -70 -102 -38 -40 -70 -77 -70 -82 0 -4 -16 -20 -35
-35 -41 -31 -48 -59 -12 -48 33 10 110 56 123 74 7 8 24 28 38 43 14 15 26 33
26 38 0 6 9 24 20 40 19 26 20 30 5 52 -14 22 -13 25 11 48 14 13 33 38 41 54
9 17 19 32 24 35 20 14 119 260 104 260 -3 0 -5 -3 -5 -8z"/>
<path d="M5792 5927 c-72 -38 -109 -74 -127 -121 -10 -25 -35 -65 -58 -88 -36
-39 -91 -137 -82 -146 6 -6 88 54 115 84 37 43 53 83 40 99 -9 11 -4 18 21 31
35 18 159 138 159 154 0 16 -22 12 -68 -13z"/>
<path d="M6030 5925 c-14 -8 -35 -19 -47 -26 -32 -17 -37 -39 -10 -39 42 0
126 30 154 55 l28 24 -50 1 c-27 0 -61 -7 -75 -15z"/>
<path d="M2690 5909 c-41 -19 -58 -20 -195 -15 -82 3 -185 9 -227 12 l-78 6 0
-33 c0 -19 5 -63 10 -99 5 -36 14 -113 19 -172 11 -115 24 -174 77 -363 19
-66 35 -129 35 -140 0 -11 14 -47 30 -80 29 -59 29 -59 24 -20 -3 22 -17 76
-30 120 -42 140 -84 336 -101 460 -8 66 -19 138 -24 160 -5 22 -10 54 -10 72
0 29 3 32 48 42 54 11 292 14 432 5 80 -5 98 -4 109 9 7 9 11 24 9 34 -5 26
-72 27 -128 2z"/>
<path d="M6483 5894 c-61 -26 -275 -205 -254 -212 6 -2 55 18 108 44 74 36
112 62 156 106 31 32 57 63 57 68 0 14 -29 11 -67 -6z"/>
<path d="M10573 5834 l-23 -25 22 -30 c12 -16 30 -31 40 -35 10 -3 28 -26 39
-52 17 -38 20 -58 16 -112 -3 -36 -11 -82 -17 -102 l-11 -38 -62 0 c-101 0
-596 85 -649 112 -9 4 -20 24 -24 43 -4 25 -15 40 -35 50 -15 8 -30 12 -32 7
-3 -4 -8 -34 -12 -67 -3 -33 -17 -104 -31 -158 -14 -53 -22 -102 -19 -107 3
-6 19 -10 34 -10 20 0 35 10 57 40 33 46 27 46 204 11 52 -11 149 -29 215 -41
142 -25 251 -48 282 -60 15 -6 27 -25 36 -57 12 -40 18 -49 40 -51 24 -3 27 2
46 63 12 37 21 81 21 99 0 41 24 178 49 274 11 42 22 96 25 119 3 23 8 48 11
56 4 10 -10 20 -46 35 -28 12 -59 22 -68 22 -9 0 -29 9 -46 20 -37 25 -35 25
-62 -6z"/>
<path d="M8900 5813 c-19 -10 -34 -22 -33 -28 0 -5 20 -16 44 -24 34 -11 54
-12 99 -3 30 6 88 14 128 18 69 6 72 7 51 22 -12 8 -34 16 -48 18 -181 16
-206 15 -241 -3z"/>
<path d="M9234 5815 c-7 -18 12 -45 32 -45 19 0 18 46 -2 54 -22 8 -24 8 -30
-9z"/>
<path d="M5853 5779 c-54 -47 -77 -95 -40 -83 38 11 112 62 135 94 l23 30 -35
0 c-26 0 -46 -10 -83 -41z"/>
<path d="M6517 5770 c-36 -27 -72 -59 -80 -70 -8 -11 -31 -39 -52 -61 l-38
-41 34 7 c40 9 105 40 114 56 4 6 15 13 25 17 26 11 100 101 100 123 0 32 -33
22 -103 -31z"/>
<path d="M2961 5787 c-20 -10 -29 -29 -48 -102 -12 -49 -27 -128 -32 -175 -9
-77 -22 -141 -61 -295 -12 -49 -42 -141 -109 -335 -18 -52 -39 -120 -47 -150
-8 -30 -21 -68 -28 -85 -22 -50 -34 -88 -40 -125 -5 -33 -5 -34 10 -15 9 11
27 45 41 75 14 30 39 84 56 120 42 89 46 98 62 155 8 28 32 102 54 165 22 63
43 135 46 160 8 57 59 278 90 390 13 47 25 118 27 158 2 39 4 72 3 72 0 0 -11
-6 -24 -13z"/>
<path d="M6095 5770 c-27 -11 -58 -20 -67 -20 -18 0 -128 -102 -128 -119 0
-12 95 14 125 35 11 8 25 14 32 14 13 0 38 18 75 53 10 9 21 17 24 17 3 0 17
9 31 20 l26 20 -34 0 c-19 -1 -56 -10 -84 -20z"/>
<path d="M6942 5716 c-23 -42 -42 -80 -42 -85 0 -6 -10 -26 -21 -46 -24 -40
-21 -54 4 -27 52 55 67 80 87 143 11 39 20 75 18 80 -2 6 -22 -24 -46 -65z"/>
<path d="M6670 5727 c-13 -12 -36 -35 -50 -51 -14 -16 -35 -40 -47 -53 -13
-13 -23 -28 -23 -32 0 -5 -25 -30 -55 -56 -54 -47 -55 -48 -34 -63 20 -14 19
-15 -32 -34 -30 -11 -64 -22 -75 -25 -12 -3 -42 -22 -68 -43 -25 -21 -50 -40
-54 -42 -12 -5 -54 -69 -49 -75 16 -16 145 56 247 139 70 56 72 58 60 73 -8
10 -3 18 22 36 18 13 35 27 36 31 2 4 9 8 15 8 31 0 157 165 157 205 0 12 -27
2 -50 -18z"/>
<path d="M7065 5678 c-9 -13 -23 -48 -32 -77 -8 -30 -36 -97 -60 -148 -49
-102 -91 -151 -238 -278 -49 -43 -99 -88 -111 -99 -11 -12 -41 -38 -66 -59
-104 -87 -150 -168 -182 -320 -24 -116 -30 -188 -14 -182 17 7 58 79 58 102 0
11 4 23 9 28 5 6 23 52 41 103 18 50 43 104 56 120 13 15 24 30 24 35 0 8 77
84 146 142 26 22 73 66 105 98 32 31 61 57 65 57 31 0 164 195 164 240 0 14
11 64 24 110 26 92 38 150 31 150 -2 0 -11 -10 -20 -22z"/>
<path d="M5765 5633 c-53 -14 -106 -86 -92 -126 4 -13 127 104 127 122 0 12
-3 12 -35 4z"/>
<path d="M6133 5622 c-50 -17 -113 -66 -135 -106 -10 -18 -7 -18 33 -12 53 9
120 44 179 96 l45 40 -35 -1 c-19 0 -58 -8 -87 -17z"/>
<path d="M2315 5590 c-18 -20 -17 -20 71 -20 102 0 134 7 134 26 0 11 -21 14
-93 14 -81 0 -96 -3 -112 -20z"/>
<path d="M2625 5597 c-16 -13 -13 -15 30 -20 52 -8 129 8 120 23 -9 15 -128
12 -150 -3z"/>
<path d="M5895 5585 c-16 -8 -40 -23 -53 -34 -22 -19 -85 -147 -80 -162 2 -4
22 1 45 12 34 15 49 33 87 98 60 105 60 114 1 86z"/>
<path d="M8850 5533 c0 -10 6 -27 13 -37 12 -17 27 -18 199 -11 l185 7 -5 24
c-4 22 -9 24 -71 24 -36 0 -123 3 -193 7 -123 6 -128 5 -128 -14z"/>
<path d="M506 5518 c-10 -40 -7 -74 20 -174 15 -57 24 -111 21 -130 -3 -19 0
-40 9 -52 9 -13 11 -23 4 -27 -16 -10 -12 -39 21 -148 17 -56 34 -122 38 -147
25 -138 103 -391 178 -578 18 -46 33 -90 33 -97 0 -17 91 -234 160 -380 47
-100 213 -430 252 -502 20 -38 42 -79 50 -93 7 -14 27 -46 45 -71 18 -26 33
-52 33 -59 0 -6 26 -50 58 -97 31 -46 64 -97 73 -111 25 -45 111 -174 126
-191 46 -53 83 -105 83 -117 0 -8 4 -14 9 -14 5 0 13 -9 16 -20 4 -11 10 -18
15 -15 5 3 16 -11 25 -31 8 -20 26 -50 40 -68 14 -17 47 -58 73 -91 l47 -60 3
42 c5 69 -50 149 -130 187 -39 19 -43 25 -43 57 0 21 -10 52 -25 75 -14 21
-31 48 -37 59 -22 37 -93 149 -133 210 -22 33 -47 76 -56 95 -9 19 -29 53 -45
77 -16 23 -29 45 -29 50 0 4 -16 30 -35 57 -19 27 -35 54 -35 59 0 5 -13 29
-29 52 -16 24 -39 63 -50 87 -11 24 -26 54 -34 68 -25 45 -60 114 -101 200 -7
14 -21 43 -33 65 -11 22 -36 76 -56 120 -19 44 -51 116 -71 160 -20 45 -36 87
-36 94 0 7 -11 37 -26 68 -28 63 -91 240 -103 293 -5 19 -22 73 -38 120 -32
94 -89 275 -123 390 -13 41 -33 97 -46 123 -18 38 -22 59 -17 95 3 31 -2 74
-16 126 -12 44 -26 118 -33 165 -11 77 -20 100 -39 101 -4 0 -9 -10 -13 -22z"/>
<path d="M6245 5515 c-22 -13 -50 -29 -61 -34 -22 -10 -54 -48 -54 -64 0 -26
192 55 235 99 l24 24 -52 0 c-37 0 -63 -7 -92 -25z"/>
<path d="M6865 5485 c-16 -5 -45 -28 -65 -50 -19 -22 -66 -71 -103 -109 -37
-38 -66 -70 -65 -71 10 -10 198 96 198 111 0 6 7 17 16 25 18 15 57 87 52 98
-2 4 -16 2 -33 -4z"/>
<path d="M6005 5473 c-77 -27 -156 -140 -155 -221 1 -16 1 -16 14 1 7 9 17 17
22 17 28 0 179 200 162 214 -1 2 -21 -3 -43 -11z"/>
<path d="M5637 5432 c-20 -20 -37 -41 -37 -46 0 -5 -16 -49 -36 -98 -20 -49
-34 -92 -31 -94 7 -8 67 47 67 61 0 7 4 15 8 17 11 4 62 122 62 142 0 10 5 26
10 37 16 29 -1 22 -43 -19z"/>
<path d="M1808 5431 c-19 -11 -28 -24 -28 -41 0 -14 -4 -29 -8 -35 -15 -21
-90 -53 -162 -71 -41 -10 -121 -33 -177 -51 -56 -18 -111 -33 -122 -33 -10 0
-60 -21 -110 -46 -90 -46 -92 -48 -123 -111 -29 -61 -31 -69 -24 -149 12 -166
66 -274 171 -343 55 -36 155 -35 275 4 47 15 106 31 132 35 26 5 77 20 115 33
97 35 188 44 239 22 93 -40 85 -42 78 23 -7 57 -46 174 -70 207 -12 17 -15 17
-39 1 -18 -12 -25 -25 -25 -50 0 -29 -6 -36 -47 -58 -27 -15 -68 -31 -93 -38
-25 -6 -94 -27 -155 -45 -165 -50 -298 -79 -331 -71 -44 11 -80 42 -110 94
-24 40 -28 58 -28 127 -1 66 3 86 21 116 26 41 116 94 178 104 22 3 87 21 145
40 161 51 215 65 269 72 49 6 49 5 76 -36 30 -44 35 -47 53 -29 20 20 13 79
-23 193 -19 61 -35 118 -35 127 0 25 -11 27 -42 9z"/>
<path d="M5763 5333 c-18 -8 -33 -21 -33 -28 0 -7 -7 -18 -16 -26 -28 -23 -43
-65 -50 -145 l-7 -79 37 34 c20 19 36 40 36 47 0 7 16 54 35 105 20 51 34 96
33 100 -2 5 -18 1 -35 -8z"/>
<path d="M6085 5336 c-68 -31 -137 -120 -148 -192 l-7 -42 34 18 c34 17 116
102 116 120 0 5 14 29 30 53 17 25 30 48 30 51 0 10 -23 6 -55 -8z"/>
<path d="M2346 5325 c-11 -8 -17 -17 -15 -20 3 -2 56 0 119 5 63 5 144 10 180
10 36 0 72 5 80 10 10 6 -45 10 -165 10 -142 -1 -184 -4 -199 -15z"/>
<path d="M6464 5296 c-105 -52 -217 -146 -173 -146 23 0 175 73 200 96 14 13
29 24 35 24 5 0 25 16 44 35 34 35 34 35 9 35 -14 0 -66 -20 -115 -44z"/>
<path d="M8914 5258 c-8 -15 -14 -29 -14 -33 0 -3 52 -5 115 -5 104 0 115 2
125 20 14 26 10 27 -113 38 l-99 8 -14 -28z"/>
<path d="M5873 5224 c-3 -8 -16 -19 -28 -24 -33 -12 -65 -89 -65 -155 0 -30 3
-55 8 -55 24 2 62 50 71 90 20 93 28 125 36 143 4 10 3 17 -4 17 -7 0 -14 -7
-18 -16z"/>
<path d="M6175 5208 c-45 -24 -89 -77 -126 -150 -38 -75 -49 -118 -30 -118 16
0 121 122 121 140 0 10 8 28 19 41 18 24 51 83 51 94 0 8 -13 6 -35 -7z"/>
<path d="M6605 5208 c-64 -16 -185 -88 -185 -110 0 -6 -7 -20 -17 -30 -25 -28
-10 -31 35 -6 93 53 180 108 192 122 7 9 18 16 26 16 7 0 16 5 19 10 7 12 -15
11 -70 -2z"/>
<path d="M6258 5097 c-37 -22 -92 -89 -107 -130 -4 -12 -11 -41 -15 -64 l-6
-42 38 37 c51 48 92 104 125 170 31 58 23 65 -35 29z"/>
<path d="M5926 5049 c-50 -59 -77 -189 -38 -189 26 1 46 21 60 61 14 40 28
169 19 169 -3 0 -21 -18 -41 -41z"/>
<path d="M2457 5043 c10 -21 19 -40 21 -43 1 -2 22 5 45 17 23 12 61 27 85 34
24 7 45 16 48 21 3 4 -45 8 -105 8 l-111 0 17 -37z"/>
<path d="M6388 5000 c-46 -14 -107 -95 -108 -143 l0 -28 30 23 c16 12 32 29
35 38 3 9 19 32 36 51 35 38 54 69 42 68 -4 0 -20 -4 -35 -9z"/>
<path d="M11154 4985 c-6 -15 11 -45 26 -45 12 0 20 28 14 45 -8 19 -33 19
-40 0z"/>
<path d="M6029 4902 c-29 -26 -32 -34 -37 -105 -3 -54 -1 -77 7 -77 6 0 11 5
11 10 0 6 11 27 25 48 22 34 47 152 32 152 -4 0 -21 -13 -38 -28z"/>
<path d="M2420 4875 c0 -24 25 -79 43 -94 15 -12 17 -10 17 13 0 39 -27 96
-44 96 -9 0 -16 -7 -16 -15z"/>
<path d="M6158 4857 c-38 -31 -58 -87 -58 -165 l0 -77 30 30 c26 27 31 40 40
124 6 52 9 95 7 97 -2 2 -10 -2 -19 -9z"/>
<path d="M6278 4789 c-30 -47 -47 -99 -54 -164 -6 -60 -5 -64 19 -80 l26 -16
-20 -34 -20 -34 20 -46 c23 -51 34 -51 51 -1 8 26 8 48 -3 94 -10 44 -11 78
-5 126 5 37 8 93 6 124 l-3 56 -17 -25z"/>
<path d="M9022 4628 c-6 -18 -13 -51 -16 -72 l-5 -39 34 33 c28 27 35 42 35
72 0 31 -4 38 -19 38 -13 0 -23 -11 -29 -32z"/>
<path d="M6130 4596 c-9 -17 -11 -42 -7 -77 8 -69 22 -82 36 -33 14 51 13 84
-2 112 l-13 23 -14 -25z"/>
<path d="M6397 4508 c-16 -25 -27 -56 -27 -76 0 -49 21 -125 32 -114 15 15 38
113 38 162 0 69 -12 76 -43 28z"/>
<path d="M6437 4311 c-21 -35 -22 -71 -3 -115 27 -65 36 -53 36 48 0 53 -4 96
-8 96 -4 0 -15 -13 -25 -29z"/>
<path d="M5874 4218 c3 -13 6 -29 6 -35 0 -16 56 -17 66 -1 8 13 -40 58 -63
58 -11 0 -14 -6 -9 -22z"/>
<path d="M5997 4078 c45 -80 126 -134 167 -111 13 7 10 14 -18 43 -71 74 -111
100 -152 100 -13 0 -12 -5 3 -32z"/>
<path d="M9268 3968 c-65 -133 -88 -185 -88 -198 0 -6 17 -10 38 -10 28 0 45
7 62 25 13 14 28 25 33 25 15 0 122 -47 222 -98 50 -25 110 -55 135 -68 25
-13 83 -41 130 -63 109 -51 145 -87 142 -141 -2 -32 2 -42 23 -56 14 -9 27
-15 28 -13 19 27 37 61 37 69 0 7 15 37 33 69 19 31 37 69 40 83 4 15 21 50
37 78 17 28 30 55 30 60 0 5 14 32 30 60 17 28 30 55 30 60 0 6 9 27 20 47 21
39 25 63 13 63 -5 1 -37 28 -73 60 -36 33 -69 60 -75 60 -5 0 -23 -10 -38 -23
l-28 -22 26 -37 c63 -92 55 -216 -18 -295 -45 -49 -56 -51 -112 -24 -504 241
-555 269 -555 309 0 9 -5 34 -11 55 -8 29 -15 37 -33 37 -19 0 -31 -19 -78
-112z"/>
<path d="M6203 3937 c-35 -13 -53 -27 -35 -27 6 0 27 -15 46 -34 18 -19 52
-44 75 -56 l41 -21 11 27 c13 35 6 51 -28 67 -15 6 -36 22 -46 34 -21 26 -20
26 -64 10z"/>
<path d="M6091 3823 c101 -132 117 -143 156 -108 27 25 27 26 9 38 -11 7 -28
20 -38 30 -34 32 -82 57 -112 57 -26 0 -27 -2 -15 -17z"/>
<path d="M3139 3717 c7 -9 19 -17 26 -17 6 0 38 -13 71 -29 78 -38 108 -47
102 -30 -6 19 -65 49 -123 64 -27 8 -59 17 -70 21 -18 7 -18 6 -6 -9z"/>
<path d="M6267 3693 c-18 -35 -18 -36 5 -52 13 -8 39 -30 59 -48 40 -36 76
-43 86 -15 3 9 12 24 20 33 13 15 10 20 -19 42 -25 19 -126 78 -132 77 -1 0
-9 -17 -19 -37z"/>
<path d="M2493 3707 c-24 -11 -31 -49 -14 -76 13 -20 -13 -56 -49 -71 -17 -7
-30 -16 -30 -21 0 -4 -32 -27 -71 -51 -130 -79 -133 -81 -243 -154 -85 -57
-187 -114 -203 -114 -8 0 -28 11 -45 25 -34 29 -46 31 -75 10 -22 -16 -22 -16
-3 -35 11 -11 20 -25 20 -32 0 -6 8 -21 19 -32 10 -12 31 -43 46 -71 15 -27
38 -63 51 -78 13 -16 24 -35 24 -43 0 -20 34 -17 54 5 11 12 17 32 15 53 -1
18 -1 40 0 49 1 18 64 69 141 114 48 28 116 71 166 105 31 21 177 109 238 143
41 24 52 26 60 15 6 -7 24 -21 39 -31 26 -17 30 -17 53 -2 30 19 30 21 -1 61
-14 18 -25 37 -25 42 0 5 -12 25 -27 45 -16 20 -41 58 -58 85 -37 61 -52 72
-82 59z"/>
<path d="M3409 3602 c5 -10 22 -24 38 -32 15 -8 51 -28 78 -45 52 -31 123 -60
131 -52 6 6 -114 87 -129 87 -7 0 -21 6 -32 14 -11 7 -37 21 -58 29 -35 15
-37 15 -28 -1z"/>
<path d="M3096 3530 c18 -29 44 -48 44 -31 0 13 -40 61 -51 61 -6 0 -2 -13 7
-30z"/>
<path d="M3146 3467 c3 -10 9 -15 12 -12 3 3 0 11 -7 18 -10 9 -11 8 -5 -6z"/>
<path d="M6690 3434 c-51 -26 -53 -28 -30 -35 38 -11 238 -10 245 0 7 12 -79
51 -125 57 -25 4 -51 -3 -90 -22z"/>
<path d="M3710 3420 c19 -17 57 -42 84 -56 l49 -26 -22 31 c-25 34 -42 45
-104 67 l-42 14 35 -30z"/>
<path d="M3317 3320 c18 -31 28 -37 37 -21 4 5 64 9 135 8 71 -1 133 2 138 6
4 5 -1 15 -11 23 -15 11 -56 14 -168 14 l-149 0 18 -30z"/>
<path d="M3914 3275 c33 -30 67 -55 77 -55 10 0 24 -7 31 -15 19 -23 113 -118
134 -135 66 -54 116 -91 120 -87 13 13 -22 67 -59 90 -23 15 -82 65 -132 112
-59 56 -112 95 -153 115 -35 16 -66 30 -70 30 -4 -1 20 -25 52 -55z"/>
<path d="M3362 3252 c-9 -6 5 -27 50 -74 35 -37 97 -102 138 -146 51 -55 84
-82 102 -84 33 -5 34 -2 8 37 -11 17 -20 33 -20 38 0 4 41 7 90 7 l90 0 0 36
0 36 -128 -3 -129 -4 -41 37 c-23 21 -42 41 -42 45 0 12 -81 83 -94 83 -6 0
-17 -4 -24 -8z"/>
<path d="M6850 3190 c-131 -18 -242 -52 -226 -68 22 -22 1383 -16 1531 7 48 7
49 8 24 19 -16 6 -175 15 -400 21 -206 6 -428 16 -495 22 -103 9 -125 9 -150
-4 -19 -10 -37 -12 -51 -6 -36 13 -163 18 -233 9z"/>
<path d="M3851 3061 c-11 -7 -10 -11 7 -20 27 -14 78 -13 122 3 l35 13 -55 6
c-72 9 -92 8 -109 -2z"/>
<path d="M8015 2973 l-72 -76 -59 6 c-32 3 -104 10 -159 16 -55 6 -326 12
-601 13 -466 3 -503 2 -521 -14 -11 -10 -30 -18 -43 -18 -13 0 -20 -3 -16 -7
14 -14 316 -23 741 -22 404 1 605 -6 605 -21 0 -14 -146 -163 -175 -178 -26
-13 -94 -16 -465 -20 -239 -3 -455 -3 -480 -2 -136 9 -186 5 -242 -19 -32 -13
-56 -27 -53 -31 2 -4 127 -5 277 -3 421 7 858 9 858 3 0 -27 -98 -120 -147
-139 -18 -7 -40 -24 -49 -38 l-16 -26 28 7 c25 6 104 61 166 116 9 8 38 31 63
50 75 57 335 320 335 339 0 4 16 21 35 40 19 18 35 38 35 44 0 6 10 21 22 34
12 13 18 23 13 23 -5 0 -41 -34 -80 -77z"/>
<path d="M4325 2926 c34 -41 96 -96 109 -96 3 0 6 8 6 18 0 30 -94 122 -125
122 l-26 0 36 -44z"/>
<path d="M3706 2918 c6 -20 21 -43 65 -95 5 -7 14 -13 18 -13 13 0 21 54 9 59
-6 2 -28 19 -48 37 -44 40 -54 42 -44 12z"/>
<path d="M8530 2893 c-14 -14 -109 -107 -212 -207 -104 -100 -188 -187 -188
-192 0 -21 47 -33 85 -23 20 6 47 7 60 2 21 -7 214 -179 249 -221 6 -8 56 -60
111 -115 127 -129 136 -146 116 -202 -16 -46 -10 -75 16 -75 10 0 119 99 243
219 l225 219 -19 39 c-10 21 -34 59 -53 86 -31 43 -38 47 -75 47 -39 0 -40 -1
-33 -27 4 -16 9 -59 12 -98 l4 -70 -68 -72 c-83 -86 -101 -94 -153 -59 -41 27
-180 165 -180 179 0 11 69 78 95 92 19 11 38 8 100 -15 22 -8 75 13 75 30 0
15 -213 221 -225 217 -5 -2 -17 -15 -25 -30 -13 -23 -12 -30 3 -62 20 -43 11
-67 -48 -128 -29 -30 -40 -35 -54 -27 -10 5 -64 57 -119 116 l-101 106 20 28
c12 15 32 34 45 41 13 7 24 16 24 21 0 15 80 58 108 58 16 0 54 -8 86 -19 57
-18 57 -18 71 2 21 31 19 40 -17 67 -18 13 -40 29 -48 37 -43 38 -79 63 -91
63 -8 0 -25 -12 -39 -27z"/>
<path d="M4460 2800 c0 -22 12 -42 42 -75 23 -25 48 -45 55 -45 7 0 13 -4 13
-9 0 -5 17 -28 38 -50 20 -23 60 -66 87 -96 28 -30 55 -55 62 -55 7 0 17 -9
23 -20 13 -24 60 -50 91 -50 l22 0 -21 23 c-12 13 -22 26 -22 29 0 8 -355 360
-374 370 -13 7 -16 3 -16 -22z"/>
<path d="M3830 2803 c0 -5 9 -23 20 -41 16 -25 25 -32 38 -27 41 17 103 23
193 18 92 -6 199 9 199 26 0 12 -205 31 -332 31 -65 0 -118 -3 -118 -7z"/>
<path d="M3328 2649 c-20 -11 -24 -44 -7 -54 5 -4 14 -18 20 -32 12 -33 3 -49
-94 -171 -20 -26 -41 -52 -45 -57 -10 -14 -105 -129 -112 -135 -3 -3 -13 -16
-21 -30 -23 -35 -55 -74 -116 -137 -51 -54 -51 -54 -100 -48 -36 5 -53 3 -68
-10 -20 -15 -20 -16 5 -33 25 -18 100 -78 135 -109 68 -61 247 -183 268 -183
9 0 18 -4 21 -9 3 -5 39 -21 80 -36 108 -39 192 -34 301 19 49 23 96 55 120
81 73 77 105 116 105 125 0 5 11 25 24 45 36 53 51 135 38 212 -14 86 -54 161
-131 246 -62 69 -84 88 -163 142 -21 14 -38 29 -38 34 0 5 -15 16 -34 25 -19
9 -36 20 -38 25 -4 11 -116 101 -125 101 -5 0 -16 -5 -25 -11z m216 -222 c69
-53 139 -132 162 -186 23 -50 25 -66 21 -151 -4 -104 -25 -164 -75 -218 -15
-16 -32 -38 -38 -48 -6 -11 -20 -24 -30 -29 -10 -6 -33 -24 -50 -40 -27 -27
-93 -54 -163 -69 -23 -5 -147 31 -193 55 -37 20 -93 68 -117 100 l-22 30 36
59 c20 33 41 60 46 60 5 0 12 8 16 18 6 16 26 42 96 124 15 18 67 85 115 148
86 114 138 169 157 170 6 0 23 -10 39 -23z"/>
<path d="M4225 2530 l-40 -6 48 -23 c34 -16 67 -22 115 -23 84 0 202 12 202
22 0 4 -8 14 -18 23 -15 14 -40 17 -143 16 -68 -1 -142 -5 -164 -9z"/>
<path d="M6350 2490 c0 -27 4 -50 8 -50 5 0 18 17 30 38 l22 39 -26 11 c-35
17 -34 18 -34 -38z"/>
<path d="M6365 2405 c-17 -39 -17 -42 10 -130 15 -49 33 -115 40 -145 13 -58
33 -100 49 -100 15 0 1 94 -21 141 -13 27 -23 75 -27 126 -3 45 -12 96 -19
115 l-15 33 -17 -40z"/>
<path d="M6635 2374 c-46 -10 -135 -39 -135 -45 0 -17 73 -22 300 -20 191 1
259 5 307 17 119 32 62 43 -233 48 -121 2 -228 2 -239 0z"/>
<path d="M4565 2261 c-13 -23 153 -44 274 -35 94 7 94 7 72 25 -20 17 -42 19
-182 19 -87 0 -160 -4 -164 -9z"/>
<path d="M2025 2178 c11 -35 64 -115 80 -122 8 -3 15 -10 15 -16 0 -6 30 -43
68 -82 72 -75 201 -210 217 -227 72 -76 224 -212 362 -323 32 -25 91 -74 132
-107 40 -34 80 -61 87 -61 8 0 14 -4 14 -9 0 -8 121 -95 169 -120 14 -7 35
-21 46 -31 11 -9 44 -30 73 -45 28 -16 52 -31 52 -35 0 -4 15 -13 33 -21 17
-7 54 -28 82 -46 27 -18 55 -33 62 -33 11 0 72 -36 100 -60 7 -5 18 -10 24
-10 7 0 36 -16 65 -35 29 -19 56 -35 61 -35 4 0 42 -16 83 -36 41 -20 102 -49
135 -65 34 -16 66 -29 73 -29 7 0 36 -12 64 -26 28 -14 81 -36 117 -48 36 -13
93 -33 126 -44 115 -41 290 -92 316 -92 14 0 81 -15 150 -34 68 -18 167 -39
219 -45 52 -7 158 -24 235 -38 134 -24 157 -25 535 -27 l395 -1 265 38 c263
38 396 62 420 77 8 5 10 18 6 33 l-6 25 -57 -14 c-104 -25 -445 -77 -598 -91
-215 -19 -619 -20 -780 0 -205 24 -549 84 -675 117 -63 16 -128 30 -145 30
-34 0 -140 32 -184 55 -17 8 -41 15 -54 15 -12 0 -27 4 -32 8 -6 5 -44 21 -85
36 -41 15 -103 40 -138 57 -34 16 -69 29 -77 29 -7 0 -44 16 -82 35 -37 19
-73 35 -79 35 -15 0 -74 30 -103 52 -13 10 -30 18 -38 18 -8 0 -33 13 -56 28
-23 16 -67 41 -97 56 -30 16 -62 34 -71 42 -8 8 -21 14 -28 14 -7 0 -27 11
-44 24 -18 13 -52 34 -77 46 -25 12 -54 30 -65 39 -17 15 -57 41 -135 86 -9 6
-33 23 -53 39 -19 16 -44 34 -55 40 -22 12 -166 121 -222 168 -272 226 -360
307 -614 565 -121 123 -223 223 -228 223 -5 0 -6 -10 -3 -22z"/>
<path d="M5177 2151 c-6 -23 11 -31 56 -30 18 0 25 3 17 6 -8 3 -27 14 -41 24
-26 18 -27 18 -32 0z"/>
<path d="M5265 2089 c-8 -12 -9 -12 32 -31 22 -11 34 -13 42 -5 16 16 14 23
-14 35 -32 15 -52 15 -60 1z"/>
<path d="M9548 2057 c-31 -26 -68 -85 -68 -108 0 -10 -11 -20 -26 -23 -14 -4
-44 -19 -67 -34 -23 -14 -51 -31 -62 -37 -13 -7 -22 -24 -25 -50 -4 -29 -11
-43 -27 -50 -15 -6 -25 -22 -29 -43 -7 -35 9 -64 24 -46 64 75 159 180 167
183 28 11 107 112 125 160 25 66 23 77 -12 48z"/>
<path d="M5370 2031 c0 -15 10 -23 41 -31 22 -6 49 -10 60 -8 16 3 14 6 -14
25 -17 12 -44 25 -59 28 -24 6 -28 4 -28 -14z"/>
<path d="M7029 1860 c-26 -4 -86 -24 -135 -43 -79 -31 -207 -80 -287 -110 -22
-8 -27 -15 -23 -31 3 -12 6 -23 6 -26 0 -3 18 -4 41 -2 36 4 44 0 69 -29 16
-19 32 -46 35 -61 4 -15 11 -30 16 -33 5 -4 9 -16 9 -29 0 -12 11 -45 24 -73
14 -27 32 -76 42 -109 9 -32 30 -86 45 -120 16 -34 29 -68 29 -76 0 -7 9 -41
20 -75 l19 -63 -24 -47 c-13 -27 -27 -60 -31 -75 l-6 -27 44 14 c23 7 65 22
91 34 27 12 54 21 61 21 11 0 136 48 143 54 2 1 -3 17 -10 35 -11 31 -14 32
-48 27 -27 -4 -40 -1 -52 12 -23 25 -77 144 -77 169 0 12 -8 39 -17 59 -17 35
-17 36 2 50 32 23 110 15 143 -16 11 -10 40 -31 66 -47 25 -16 74 -54 108 -84
158 -140 142 -132 215 -94 26 14 71 33 100 41 l53 15 -14 32 c-12 30 -16 32
-54 29 -64 -5 -106 18 -290 157 -67 50 -109 88 -105 95 4 6 17 19 29 29 42 33
88 126 87 177 -1 58 -38 132 -91 183 -37 36 -43 39 -113 42 -41 2 -95 0 -120
-5z m90 -104 c31 -20 50 -43 73 -91 l32 -64 -19 -40 c-10 -23 -22 -41 -27 -41
-4 0 -8 -6 -8 -14 0 -24 -81 -82 -145 -104 l-60 -20 -16 41 c-8 23 -22 58 -31
77 -19 46 -36 93 -55 158 -19 62 -17 65 82 107 72 30 115 28 174 -9z"/>
<path d="M9156 1688 c-22 -18 -73 -62 -115 -98 -42 -36 -101 -86 -131 -110
-30 -25 -85 -71 -122 -103 -37 -33 -80 -66 -97 -76 -16 -9 -57 -36 -91 -61
-81 -59 -140 -97 -315 -205 -18 -11 -52 -33 -76 -49 -114 -74 -133 -86 -144
-86 -6 0 -36 -15 -66 -32 -30 -18 -97 -53 -149 -76 -52 -24 -117 -54 -145 -67
-118 -55 -213 -95 -224 -95 -22 0 -76 -32 -98 -58 -16 -19 -25 -23 -35 -15 -9
7 -34 7 -80 0 -64 -10 -68 -12 -68 -36 0 -36 12 -52 30 -41 8 6 26 10 39 10
26 0 175 56 266 101 33 16 84 36 113 44 29 9 79 31 111 50 32 19 76 38 97 44
64 15 113 40 130 66 10 16 35 30 72 40 64 19 170 73 214 110 16 14 36 25 43
25 7 0 15 3 17 8 4 8 85 62 94 62 3 0 28 16 54 35 26 19 52 35 57 35 5 0 24
13 43 30 19 16 41 29 48 30 7 0 22 16 33 35 12 19 24 35 28 35 19 0 149 108
268 224 59 56 64 59 80 44 15 -16 21 -12 81 53 35 38 75 72 88 75 13 3 24 7
24 9 0 6 -30 75 -33 75 -1 0 -20 -15 -41 -32z"/>
<path d="M5205 1694 c-8 -9 -15 -21 -15 -29 0 -7 -3 -15 -7 -17 -11 -4 -63
-75 -63 -84 0 -4 -14 -25 -31 -48 -46 -62 -105 -155 -172 -269 -21 -36 -44
-71 -52 -77 -8 -7 -15 -20 -15 -30 0 -9 -8 -24 -18 -33 -10 -9 -28 -37 -40
-61 -14 -28 -48 -65 -93 -101 -39 -32 -67 -61 -62 -65 15 -14 176 -50 225 -50
44 0 48 2 48 25 0 13 -7 30 -16 37 -63 52 -64 57 -13 141 16 27 29 55 29 63 0
18 21 18 140 -1 126 -20 192 -35 209 -48 24 -20 61 -118 61 -164 0 -45 -1 -46
-52 -57 -23 -5 -28 -12 -28 -36 0 -26 4 -30 38 -36 20 -3 69 -12 107 -20 138
-29 177 -35 182 -31 6 6 -47 121 -58 125 -11 4 -35 91 -100 352 -12 47 -37
139 -55 205 -19 66 -34 128 -34 138 0 10 -10 52 -21 92 -19 64 -26 75 -50 84
-22 8 -32 6 -44 -5z m-20 -256 c3 -24 22 -98 41 -166 20 -68 33 -126 30 -129
-3 -3 -34 0 -68 7 -35 7 -94 16 -131 20 -38 4 -71 11 -75 14 -3 4 0 18 8 31 8
13 35 55 60 95 25 39 52 83 60 98 19 33 52 72 61 72 4 0 10 -19 14 -42z"/>
<path d="M7093 492 c-14 -9 -36 -63 -28 -70 3 -3 23 0 45 7 35 10 40 16 40 41
0 24 -4 30 -22 30 -13 0 -28 -4 -35 -8z"/>
</g>
</svg>
